<?xml version="1.0" encoding="utf-8"?>
<svg xmlns="http://www.w3.org/2000/svg" xmlns:xlink="http://www.w3.org/1999/xlink" width="600" height="600" viewBox="0 0 2400 2400">
<defs>
  <clipPath id="clip400">
    <rect x="0" y="0" width="2400" height="2400"/>
  </clipPath>
</defs>
<path clip-path="url(#clip400)" d="
M0 2400 L2400 2400 L2400 0 L0 0  Z
  " fill="#000000" fill-rule="evenodd" fill-opacity="0"/>
<defs>
  <clipPath id="clip401">
    <rect x="480" y="240" width="1681" height="1681"/>
  </clipPath>
</defs>
<path clip-path="url(#clip400)" d="
M47.2441 2352.76 L2352.76 2352.76 L2352.76 47.2441 L47.2441 47.2441  Z
  " fill="#000000" fill-rule="evenodd" fill-opacity="0"/>
<defs>
  <clipPath id="clip402">
    <rect x="47" y="47" width="2307" height="2307"/>
  </clipPath>
</defs>
<path clip-path="url(#clip402)" d="
M112.494 656.247 L1852.5 656.247 L1852.5 112.494 L112.494 112.494 L112.494 656.247  Z
  " fill="#fab4ad" fill-rule="evenodd" fill-opacity="1"/>
<polyline clip-path="url(#clip402)" style="stroke:#000000; stroke-width:8; stroke-opacity:1; fill:none" points="
  112.494,656.247 1852.5,656.247 1852.5,112.494 112.494,112.494 112.494,656.247 
  "/>
<path clip-path="url(#clip402)" d="
M112.494 2287.51 L692.497 2287.51 L692.497 656.247 L112.494 656.247 L112.494 2287.51  Z
  " fill="#b3cde2" fill-rule="evenodd" fill-opacity="1"/>
<polyline clip-path="url(#clip402)" style="stroke:#000000; stroke-width:8; stroke-opacity:1; fill:none" points="
  112.494,2287.51 692.497,2287.51 692.497,656.247 112.494,656.247 112.494,2287.51 
  "/>
<path clip-path="url(#clip402)" d="
M692.497 1471.88 L1852.5 1471.88 L1852.5 656.247 L692.497 656.247 L692.497 1471.88  Z
  " fill="#ccebc5" fill-rule="evenodd" fill-opacity="1"/>
<polyline clip-path="url(#clip402)" style="stroke:#000000; stroke-width:8; stroke-opacity:1; fill:none" points="
  692.497,1471.88 1852.5,1471.88 1852.5,656.247 692.497,656.247 692.497,1471.88 
  "/>
<path clip-path="url(#clip402)" d="
M692.497 2287.51 L1852.5 2287.51 L1852.5 1471.88 L692.497 1471.88 L692.497 2287.51  Z
  " fill="#decae3" fill-rule="evenodd" fill-opacity="1"/>
<polyline clip-path="url(#clip402)" style="stroke:#000000; stroke-width:8; stroke-opacity:1; fill:none" points="
  692.497,2287.51 1852.5,2287.51 1852.5,1471.88 692.497,1471.88 692.497,2287.51 
  "/>
<path clip-path="url(#clip402)" d="
M1852.5 2287.51 L2287.51 2287.51 L2287.51 112.494 L1852.5 112.494 L1852.5 2287.51  Z
  " fill="#fdd9a6" fill-rule="evenodd" fill-opacity="1"/>
<polyline clip-path="url(#clip402)" style="stroke:#000000; stroke-width:8; stroke-opacity:1; fill:none" points="
  1852.5,2287.51 2287.51,2287.51 2287.51,112.494 1852.5,112.494 1852.5,2287.51 
  "/>
<polyline clip-path="url(#clip402)" style="stroke:#000000; stroke-width:8; stroke-opacity:1; fill:none" points="
  199.495,384.371 199.495,125.441 
  "/>
<polyline clip-path="url(#clip402)" style="stroke:#000000; stroke-width:8; stroke-opacity:1; fill:none" points="
  181.495,161.441 199.495,125.441 217.495,161.441 
  "/>
<polyline clip-path="url(#clip402)" style="stroke:#000000; stroke-width:8; stroke-opacity:1; fill:none" points="
  199.495,125.441 199.495,384.371 
  "/>
<polyline clip-path="url(#clip402)" style="stroke:#000000; stroke-width:8; stroke-opacity:1; fill:none" points="
  199.495,384.371 199.495,643.301 
  "/>
<polyline clip-path="url(#clip402)" style="stroke:#000000; stroke-width:8; stroke-opacity:1; fill:none" points="
  217.495,607.301 199.495,643.301 181.495,607.301 
  "/>
<polyline clip-path="url(#clip402)" style="stroke:#000000; stroke-width:8; stroke-opacity:1; fill:none" points="
  199.495,643.301 199.495,384.371 
  "/>
<path clip-path="url(#clip400)" d="M 0 0 M982.499 352.687 L966.642 395.684 L998.413 395.684 L982.499 352.687 M975.902 341.171 L989.154 341.171 L1022.08 427.571 L1009.93 427.571 L1002.06 405.407 L963.112 405.407 L955.242 427.571 L942.916 427.571 L975.902 341.171 Z" fill="#000000" fill-rule="evenodd" fill-opacity="1" /><path clip-path="url(#clip400)" d="M 0 0 M383.543 1473.82 L383.543 1505.47 L402.293 1505.47 Q411.726 1505.47 416.24 1501.59 Q420.812 1497.66 420.812 1489.61 Q420.812 1481.51 416.24 1477.69 Q411.726 1473.82 402.293 1473.82 L383.543 1473.82 M383.543 1438.28 L383.543 1464.32 L400.847 1464.32 Q409.411 1464.32 413.578 1461.14 Q417.803 1457.9 417.803 1451.3 Q417.803 1444.76 413.578 1441.52 Q409.411 1438.28 400.847 1438.28 L383.543 1438.28 M371.854 1428.68 L401.715 1428.68 Q415.083 1428.68 422.316 1434.23 Q429.55 1439.79 429.55 1450.03 Q429.55 1457.96 425.846 1462.65 Q422.143 1467.33 414.967 1468.49 Q423.59 1470.34 428.335 1476.25 Q433.138 1482.09 433.138 1490.89 Q433.138 1502.46 425.268 1508.77 Q417.397 1515.08 402.872 1515.08 L371.854 1515.08 L371.854 1428.68 Z" fill="#000000" fill-rule="evenodd" fill-opacity="1" /><path clip-path="url(#clip400)" d="M 0 0 M1307.34 1027.52 L1307.34 1039.84 Q1301.44 1034.35 1294.72 1031.63 Q1288.07 1028.91 1280.54 1028.91 Q1265.73 1028.91 1257.86 1037.99 Q1249.99 1047.02 1249.99 1064.15 Q1249.99 1081.22 1257.86 1090.31 Q1265.73 1099.33 1280.54 1099.33 Q1288.07 1099.33 1294.72 1096.61 Q1301.44 1093.89 1307.34 1088.4 L1307.34 1100.61 Q1301.2 1104.77 1294.32 1106.86 Q1287.49 1108.94 1279.85 1108.94 Q1260.23 1108.94 1248.95 1096.96 Q1237.66 1084.92 1237.66 1064.15 Q1237.66 1043.32 1248.95 1031.34 Q1260.23 1019.3 1279.85 1019.3 Q1287.6 1019.3 1294.43 1021.38 Q1301.32 1023.41 1307.34 1027.52 Z" fill="#000000" fill-rule="evenodd" fill-opacity="1" /><path clip-path="url(#clip400)" d="M 0 0 M1247.88 1846.1 L1247.88 1913.28 L1262 1913.28 Q1279.88 1913.28 1288.15 1905.18 Q1296.49 1897.08 1296.49 1879.6 Q1296.49 1862.24 1288.15 1854.2 Q1279.88 1846.1 1262 1846.1 L1247.88 1846.1 M1236.19 1836.49 L1260.2 1836.49 Q1285.32 1836.49 1297.07 1846.97 Q1308.81 1857.38 1308.81 1879.6 Q1308.81 1901.94 1297.01 1912.42 Q1285.2 1922.89 1260.2 1922.89 L1236.19 1922.89 L1236.19 1836.49 Z" fill="#000000" fill-rule="evenodd" fill-opacity="1" /><path clip-path="url(#clip400)" d="M 0 0 M2042.17 1156.8 L2096.8 1156.8 L2096.8 1166.64 L2053.86 1166.64 L2053.86 1192.22 L2095 1192.22 L2095 1202.05 L2053.86 1202.05 L2053.86 1233.36 L2097.84 1233.36 L2097.84 1243.2 L2042.17 1243.2 L2042.17 1156.8 Z" fill="#000000" fill-rule="evenodd" fill-opacity="1" /><path clip-path="url(#clip400)" d="M 0 0 M273.127 417.733 L313.926 417.733 L313.926 427.571 L259.065 427.571 L259.065 417.733 Q265.72 410.846 277.178 399.272 Q288.694 387.64 291.646 384.284 Q297.259 377.976 299.458 373.636 Q301.715 369.238 301.715 365.013 Q301.715 358.127 296.854 353.786 Q292.051 349.446 284.296 349.446 Q278.799 349.446 272.664 351.356 Q266.588 353.266 259.644 357.143 L259.644 345.337 Q266.704 342.502 272.838 341.055 Q278.972 339.608 284.065 339.608 Q297.491 339.608 305.477 346.321 Q313.463 353.034 313.463 364.261 Q313.463 369.585 311.437 374.388 Q309.47 379.134 304.204 385.615 Q302.757 387.293 295.002 395.337 Q287.248 403.323 273.127 417.733 Z" fill="#000000" fill-rule="evenodd" fill-opacity="1" /></svg>
