<svg class="main-svg" xmlns="http://www.w3.org/2000/svg" xmlns:xlink="http://www.w3.org/1999/xlink" width="600" height="400" viewBox="0 0 600 400"><rect x="0" y="0" width="600" height="400" style="fill: rgb(255, 255, 255); fill-opacity: 1;"/><defs id="defs-464a46"><g class="clips"><clipPath id="clip464a46xyplot" class="plotclip"><rect width="469.1202974628172" height="311.6633858267717"/></clipPath><clipPath class="axesclip" id="clip464a46x"><rect x="47.4676290463692" y="0" width="469.1202974628172" height="400"/></clipPath><clipPath class="axesclip" id="clip464a46y"><rect x="0" y="41.04330708661415" width="600" height="311.6633858267717"/></clipPath><clipPath class="axesclip" id="clip464a46xy"><rect x="47.4676290463692" y="41.04330708661415" width="469.1202974628172" height="311.6633858267717"/></clipPath></g><g class="gradients"/></defs><g class="bglayer"/><g class="layer-below"><g class="imagelayer"/><g class="shapelayer"/></g><g class="cartesianlayer"><g class="subplot xy"><g class="layer-subplot"><g class="shapelayer"/><g class="imagelayer"/></g><g class="gridlayer"><g class="x"><path class="xgrid crisp" transform="translate(60.7476290463692,0)" d="M0,41.04330708661415v311.6633858267717" style="stroke: rgb(0, 0, 0); stroke-opacity: 0.1; stroke-width: 0.5px;"/><path class="xgrid crisp" transform="translate(171.3876290463692,0)" d="M0,41.04330708661415v311.6633858267717" style="stroke: rgb(0, 0, 0); stroke-opacity: 0.1; stroke-width: 0.5px;"/><path class="xgrid crisp" transform="translate(282.0276290463692,0)" d="M0,41.04330708661415v311.6633858267717" style="stroke: rgb(0, 0, 0); stroke-opacity: 0.1; stroke-width: 0.5px;"/><path class="xgrid crisp" transform="translate(392.6676290463692,0)" d="M0,41.04330708661415v311.6633858267717" style="stroke: rgb(0, 0, 0); stroke-opacity: 0.1; stroke-width: 0.5px;"/><path class="xgrid crisp" transform="translate(503.3076290463692,0)" d="M0,41.04330708661415v311.6633858267717" style="stroke: rgb(0, 0, 0); stroke-opacity: 0.1; stroke-width: 0.5px;"/></g><g class="y"><path class="ygrid crisp" transform="translate(0,329.31330708661415)" d="M47.4676290463692,0h469.1202974628172" style="stroke: rgb(0, 0, 0); stroke-opacity: 0.1; stroke-width: 0.5px;"/><path class="ygrid crisp" transform="translate(0,273.86330708661416)" d="M47.4676290463692,0h469.1202974628172" style="stroke: rgb(0, 0, 0); stroke-opacity: 0.1; stroke-width: 0.5px;"/><path class="ygrid crisp" transform="translate(0,218.41330708661417)" d="M47.4676290463692,0h469.1202974628172" style="stroke: rgb(0, 0, 0); stroke-opacity: 0.1; stroke-width: 0.5px;"/><path class="ygrid crisp" transform="translate(0,162.97330708661417)" d="M47.4676290463692,0h469.1202974628172" style="stroke: rgb(0, 0, 0); stroke-opacity: 0.1; stroke-width: 0.5px;"/><path class="ygrid crisp" transform="translate(0,107.52330708661415)" d="M47.4676290463692,0h469.1202974628172" style="stroke: rgb(0, 0, 0); stroke-opacity: 0.1; stroke-width: 0.5px;"/><path class="ygrid crisp" transform="translate(0,52.07330708661415)" d="M47.4676290463692,0h469.1202974628172" style="stroke: rgb(0, 0, 0); stroke-opacity: 0.1; stroke-width: 0.5px;"/></g></g><g class="zerolinelayer"/><path class="xlines-below"/><path class="ylines-below"/><g class="overlines-below"/><g class="xaxislayer-below"/><g class="yaxislayer-below"/><g class="overaxes-below"/><g class="plot" transform="translate(47.4676290463692, 41.04330708661415)" clip-path="url('#clip464a46xyplot')"><g class="scatterlayer mlayer"><g class="trace scatter tracee071ca" style="stroke-miterlimit: 2; opacity: 1;"><g class="fills"/><g class="errorbars"/><g class="lines"><path class="js-line" d="M13.28,159.45L30.98,160.07L35.41,160.46L57.53,163.39L61.96,164.09L92.94,168.3L97.36,168.79L141.62,174.19L146.05,175.02L163.75,179.15L168.18,180.35L194.73,188.69L199.15,190.28L221.28,199.18L225.71,201.13L269.97,221.73L274.39,223.82L349.63,258.72L354.05,260.59L376.18,269L380.61,270.36L398.31,274.55L402.74,275.35L424.86,278.31L429.29,278.71L451.42,279.83L455.84,279.89" style="vector-effect: non-scaling-stroke; fill: none; stroke: rgb(0, 154, 250); stroke-opacity: 1; stroke-width: 2px; opacity: 1;"/></g><g class="points"/><g class="text"/></g><g class="trace scatter tracea117c3" style="stroke-miterlimit: 2; opacity: 1;"><g class="fills"/><g class="errorbars"/><g class="lines"><path class="js-line" d="M13.28,286.67L48.68,285.94L53.11,285.71L75.24,283.78L79.66,283.23L106.22,278.95L110.64,278.12L172.6,266.74L177.03,266.13L199.15,263.91L203.58,263.63L225.71,263.18L230.13,263.26L252.26,264.54L256.69,264.95L287.67,268.9L292.09,269.58L340.78,278.09L345.2,278.87L385.03,285.13L389.46,285.68L416.01,288.01L420.44,288.24L451.42,289.05L455.84,289.07" style="vector-effect: non-scaling-stroke; fill: none; stroke: rgb(227, 111, 71); stroke-opacity: 1; stroke-width: 2px; opacity: 1;"/></g><g class="points"/><g class="text"/></g><g class="trace scatter trace13cd75" style="stroke-miterlimit: 2; opacity: 1;"><g class="fills"/><g class="errorbars"/><g class="lines"><path class="js-line" d="M13.28,223.83L35.41,223.09L39.83,222.78L66.38,221.33L70.81,221.45L84.09,222.84L88.51,223.67L101.79,227.19L106.22,228.7L123.92,235.95L128.34,237.98L212.43,277.44L216.86,279.1L234.56,284.71L238.99,285.85L256.69,289.42L261.11,290.05L278.82,291.36L283.24,291.37L296.52,290.59L300.95,290.07L318.65,286.78L323.07,285.68L340.78,280.32L345.2,278.79L385.03,264.89L389.46,263.81L411.59,259.72L416.01,259.07L438.14,256.85L442.57,256.6L455.84,256.19" style="vector-effect: non-scaling-stroke; fill: none; stroke: rgb(62, 164, 78); stroke-opacity: 1; stroke-width: 2px; opacity: 1;"/></g><g class="points"/><g class="text"/></g><g class="trace scatter trace778815" style="stroke-miterlimit: 2; opacity: 1;"><g class="fills"/><g class="errorbars"/><g class="lines"><path class="js-line" d="M13.28,37.75L44.26,37.04L48.68,36.77L70.81,34.49L75.24,33.82L97.36,29.35L101.79,28.27L163.75,12.76L168.18,11.98L185.88,9.69L190.3,9.33L208.01,8.84L212.43,8.95L234.56,10.63L238.99,11.15L402.74,31.88L407.16,32.24L433.71,33.59L438.14,33.7L455.84,33.91" style="vector-effect: non-scaling-stroke; fill: none; stroke: rgb(195, 113, 210); stroke-opacity: 1; stroke-width: 2px; opacity: 1;"/></g><g class="points"/><g class="text"/></g><g class="trace scatter trace173823" style="stroke-miterlimit: 2; opacity: 1;"><g class="fills"/><g class="errorbars"/><g class="lines"><path class="js-line" d="M13.28,54.67L97.36,55.06L101.79,55.4L115.07,57.19L119.49,58.04L132.77,61.36L137.2,62.77L150.47,67.96L154.9,69.98L177.03,81.42L181.45,83.84L234.56,112.42L238.99,114.41L256.69,121.05L261.11,122.38L274.39,125.5L278.82,126.25L292.09,127.55L296.52,127.64L309.8,126.88L314.22,126.37L340.78,122.13L345.2,121.28L371.76,116.51L376.18,116.03L451.42,109.57L455.84,109.47" style="vector-effect: non-scaling-stroke; fill: none; stroke: rgb(172, 142, 24); stroke-opacity: 1; stroke-width: 2px; opacity: 1;"/></g><g class="points"/><g class="text"/></g><g class="trace scatter traceee5e91" style="stroke-miterlimit: 2; opacity: 1;"><g class="fills"/><g class="errorbars"/><g class="lines"><path class="js-line" d="M13.28,211.26L35.41,211.76L39.83,212.06L57.53,214.13L61.96,214.94L75.24,218.52L79.66,220.13L92.94,226.22L97.36,228.65L110.64,236.95L115.07,239.96L168.18,276.82L172.6,279.54L190.3,289.37L194.73,291.5L208.01,296.93L212.43,298.38L225.71,301.55L230.13,302.19L243.41,302.84L247.84,302.61L261.11,300.52L265.54,299.33L278.82,294.29L283.24,292.12L296.52,284.14L300.95,281.05L336.35,254.13L340.78,250.72L371.76,227.46L376.18,224.63L389.46,217.72L393.88,215.9L407.16,211.57L411.59,210.46L424.86,208.02L429.29,207.47L446.99,206.25L451.42,206.12L455.84,206.05" style="vector-effect: non-scaling-stroke; fill: none; stroke: rgb(0, 170, 174); stroke-opacity: 1; stroke-width: 2px; opacity: 1;"/></g><g class="points"/><g class="text"/></g><g class="trace scatter trace652d1f" style="stroke-miterlimit: 2; opacity: 1;"><g class="fills"/><g class="errorbars"/><g class="lines"><path class="js-line" d="M13.28,226.54L70.81,225.81L75.24,225.76L128.34,225.73L132.77,225.91L168.18,228.27L172.6,228.74L194.73,231.91L199.15,232.64L234.56,237.68L238.99,238.22L265.54,240.77L269.97,241.03L296.52,241.51L300.95,241.47L327.5,240.48L331.92,240.14L385.03,235.18L389.46,234.66L407.16,233.27L411.59,233.08L446.99,232.33L451.42,232.35L455.84,232.37" style="vector-effect: non-scaling-stroke; fill: none; stroke: rgb(237, 94, 147); stroke-opacity: 1; stroke-width: 2px; opacity: 1;"/></g><g class="points"/><g class="text"/></g></g></g><g class="overplot"/><path class="xlines-above crisp" d="M46.4676290463692,353.20669291338584H516.5879265091863" style="fill: none; stroke-width: 1px; stroke: rgb(0, 0, 0); stroke-opacity: 1;"/><path class="ylines-above crisp" d="M46.9676290463692,41.04330708661415V352.70669291338584" style="fill: none; stroke-width: 1px; stroke: rgb(0, 0, 0); stroke-opacity: 1;"/><g class="overlines-above"/><g class="xaxislayer-above"><path class="xtick ticks crisp" d="M0,352.70669291338584v-5" transform="translate(60.7476290463692,0)" style="stroke: rgb(0, 0, 0); stroke-opacity: 1; stroke-width: 1px;"/><path class="xtick ticks crisp" d="M0,352.70669291338584v-5" transform="translate(171.3876290463692,0)" style="stroke: rgb(0, 0, 0); stroke-opacity: 1; stroke-width: 1px;"/><path class="xtick ticks crisp" d="M0,352.70669291338584v-5" transform="translate(282.0276290463692,0)" style="stroke: rgb(0, 0, 0); stroke-opacity: 1; stroke-width: 1px;"/><path class="xtick ticks crisp" d="M0,352.70669291338584v-5" transform="translate(392.6676290463692,0)" style="stroke: rgb(0, 0, 0); stroke-opacity: 1; stroke-width: 1px;"/><path class="xtick ticks crisp" d="M0,352.70669291338584v-5" transform="translate(503.3076290463692,0)" style="stroke: rgb(0, 0, 0); stroke-opacity: 1; stroke-width: 1px;"/><g class="xtick"><text text-anchor="middle" x="0" y="366.9066929133858" transform="translate(60.7476290463692,0)" style="font-family: sans-serif; font-size: 11px; fill: rgb(0, 0, 0); fill-opacity: 1; white-space: pre;">0.00</text></g><g class="xtick"><text text-anchor="middle" x="0" y="366.9066929133858" transform="translate(171.3876290463692,0)" style="font-family: sans-serif; font-size: 11px; fill: rgb(0, 0, 0); fill-opacity: 1; white-space: pre;">0.25</text></g><g class="xtick"><text text-anchor="middle" x="0" y="366.9066929133858" transform="translate(282.0276290463692,0)" style="font-family: sans-serif; font-size: 11px; fill: rgb(0, 0, 0); fill-opacity: 1; white-space: pre;">0.50</text></g><g class="xtick"><text text-anchor="middle" x="0" y="366.9066929133858" transform="translate(392.6676290463692,0)" style="font-family: sans-serif; font-size: 11px; fill: rgb(0, 0, 0); fill-opacity: 1; white-space: pre;">0.75</text></g><g class="xtick"><text text-anchor="middle" x="0" y="366.9066929133858" transform="translate(503.3076290463692,0)" style="font-family: sans-serif; font-size: 11px; fill: rgb(0, 0, 0); fill-opacity: 1; white-space: pre;">1.00</text></g></g><g class="yaxislayer-above"><path class="ytick ticks crisp" d="M47.4676290463692,0h5" transform="translate(0,329.31330708661415)" style="stroke: rgb(0, 0, 0); stroke-opacity: 1; stroke-width: 1px;"/><path class="ytick ticks crisp" d="M47.4676290463692,0h5" transform="translate(0,273.86330708661416)" style="stroke: rgb(0, 0, 0); stroke-opacity: 1; stroke-width: 1px;"/><path class="ytick ticks crisp" d="M47.4676290463692,0h5" transform="translate(0,218.41330708661417)" style="stroke: rgb(0, 0, 0); stroke-opacity: 1; stroke-width: 1px;"/><path class="ytick ticks crisp" d="M47.4676290463692,0h5" transform="translate(0,162.97330708661417)" style="stroke: rgb(0, 0, 0); stroke-opacity: 1; stroke-width: 1px;"/><path class="ytick ticks crisp" d="M47.4676290463692,0h5" transform="translate(0,107.52330708661415)" style="stroke: rgb(0, 0, 0); stroke-opacity: 1; stroke-width: 1px;"/><path class="ytick ticks crisp" d="M47.4676290463692,0h5" transform="translate(0,52.07330708661415)" style="stroke: rgb(0, 0, 0); stroke-opacity: 1; stroke-width: 1px;"/><g class="ytick"><text text-anchor="end" x="44.267629046369194" y="3.8499999999999996" transform="translate(0,329.31330708661415)" style="font-family: sans-serif; font-size: 11px; fill: rgb(0, 0, 0); fill-opacity: 1; white-space: pre;">-0.5</text></g><g class="ytick"><text text-anchor="end" x="44.267629046369194" y="3.8499999999999996" transform="translate(0,273.86330708661416)" style="font-family: sans-serif; font-size: 11px; fill: rgb(0, 0, 0); fill-opacity: 1; white-space: pre;">0.0</text></g><g class="ytick"><text text-anchor="end" x="44.267629046369194" y="3.8499999999999996" transform="translate(0,218.41330708661417)" style="font-family: sans-serif; font-size: 11px; fill: rgb(0, 0, 0); fill-opacity: 1; white-space: pre;">0.5</text></g><g class="ytick"><text text-anchor="end" x="44.267629046369194" y="3.8499999999999996" transform="translate(0,162.97330708661417)" style="font-family: sans-serif; font-size: 11px; fill: rgb(0, 0, 0); fill-opacity: 1; white-space: pre;">1.0</text></g><g class="ytick"><text text-anchor="end" x="44.267629046369194" y="3.8499999999999996" transform="translate(0,107.52330708661415)" style="font-family: sans-serif; font-size: 11px; fill: rgb(0, 0, 0); fill-opacity: 1; white-space: pre;">1.5</text></g><g class="ytick"><text text-anchor="end" x="44.267629046369194" y="3.8499999999999996" transform="translate(0,52.07330708661415)" style="font-family: sans-serif; font-size: 11px; fill: rgb(0, 0, 0); fill-opacity: 1; white-space: pre;">2.0</text></g></g><g class="overaxes-above"/></g></g><g class="polarlayer"/><g class="ternarylayer"/><g class="geolayer"/><g class="pielayer"/><g class="sunburstlayer"/><g class="glimages"/><defs id="topdefs-464a46"><g class="clips"/><clipPath id="legend464a46"><rect width="80" height="143" x="0" y="0"/></clipPath></defs><g class="layer-above"><g class="imagelayer"/><g class="shapelayer"/></g><g class="infolayer"><g class="legend" pointer-events="all" transform="translate(520, 20)"><rect class="bg" shape-rendering="crispEdges" width="80" height="143" x="0" y="0" style="stroke: rgb(0, 0, 0); stroke-opacity: 1; fill: rgb(255, 255, 255); fill-opacity: 1; stroke-width: 0px;"/><g class="scrollbox" transform="translate(0, 0)" clip-path="url('#legend464a46')"><g class="groups" transform="translate(0, 0)"><g class="traces" transform="translate(0, 14.5)" style="opacity: 1;"><text class="legendtext user-select-none" text-anchor="start" x="40" y="4.29" style="font-family: sans-serif; font-size: 11px; fill: rgb(0, 0, 0); fill-opacity: 1; white-space: pre;">Joint 1</text><g class="layers" style="opacity: 1;"><g class="legendfill"/><g class="legendlines"><path class="js-line" d="M5,0h30" style="fill: none; stroke: rgb(0, 154, 250); stroke-opacity: 1; stroke-width: 2px;"/></g><g class="legendsymbols"><g class="legendpoints"/></g></g><rect class="legendtoggle" pointer-events="all" x="0" y="-9.5" width="120" height="19" style="cursor: pointer; fill: rgb(0, 0, 0); fill-opacity: 0;"/></g></g><g class="groups" transform="translate(0, 0)"><g class="traces" transform="translate(0, 33.5)" style="opacity: 1;"><text class="legendtext user-select-none" text-anchor="start" x="40" y="4.29" style="font-family: sans-serif; font-size: 11px; fill: rgb(0, 0, 0); fill-opacity: 1; white-space: pre;">Joint 2</text><g class="layers" style="opacity: 1;"><g class="legendfill"/><g class="legendlines"><path class="js-line" d="M5,0h30" style="fill: none; stroke: rgb(227, 111, 71); stroke-opacity: 1; stroke-width: 2px;"/></g><g class="legendsymbols"><g class="legendpoints"/></g></g><rect class="legendtoggle" pointer-events="all" x="0" y="-9.5" width="120" height="19" style="cursor: pointer; fill: rgb(0, 0, 0); fill-opacity: 0;"/></g></g><g class="groups" transform="translate(0, 0)"><g class="traces" transform="translate(0, 52.5)" style="opacity: 1;"><text class="legendtext user-select-none" text-anchor="start" x="40" y="4.29" style="font-family: sans-serif; font-size: 11px; fill: rgb(0, 0, 0); fill-opacity: 1; white-space: pre;">Joint 3</text><g class="layers" style="opacity: 1;"><g class="legendfill"/><g class="legendlines"><path class="js-line" d="M5,0h30" style="fill: none; stroke: rgb(62, 164, 78); stroke-opacity: 1; stroke-width: 2px;"/></g><g class="legendsymbols"><g class="legendpoints"/></g></g><rect class="legendtoggle" pointer-events="all" x="0" y="-9.5" width="120" height="19" style="cursor: pointer; fill: rgb(0, 0, 0); fill-opacity: 0;"/></g></g><g class="groups" transform="translate(0, 0)"><g class="traces" transform="translate(0, 71.5)" style="opacity: 1;"><text class="legendtext user-select-none" text-anchor="start" x="40" y="4.29" style="font-family: sans-serif; font-size: 11px; fill: rgb(0, 0, 0); fill-opacity: 1; white-space: pre;">Joint 4</text><g class="layers" style="opacity: 1;"><g class="legendfill"/><g class="legendlines"><path class="js-line" d="M5,0h30" style="fill: none; stroke: rgb(195, 113, 210); stroke-opacity: 1; stroke-width: 2px;"/></g><g class="legendsymbols"><g class="legendpoints"/></g></g><rect class="legendtoggle" pointer-events="all" x="0" y="-9.5" width="120" height="19" style="cursor: pointer; fill: rgb(0, 0, 0); fill-opacity: 0;"/></g></g><g class="groups" transform="translate(0, 0)"><g class="traces" transform="translate(0, 90.5)" style="opacity: 1;"><text class="legendtext user-select-none" text-anchor="start" x="40" y="4.29" style="font-family: sans-serif; font-size: 11px; fill: rgb(0, 0, 0); fill-opacity: 1; white-space: pre;">Joint 5</text><g class="layers" style="opacity: 1;"><g class="legendfill"/><g class="legendlines"><path class="js-line" d="M5,0h30" style="fill: none; stroke: rgb(172, 142, 24); stroke-opacity: 1; stroke-width: 2px;"/></g><g class="legendsymbols"><g class="legendpoints"/></g></g><rect class="legendtoggle" pointer-events="all" x="0" y="-9.5" width="120" height="19" style="cursor: pointer; fill: rgb(0, 0, 0); fill-opacity: 0;"/></g></g><g class="groups" transform="translate(0, 0)"><g class="traces" transform="translate(0, 109.5)" style="opacity: 1;"><text class="legendtext user-select-none" text-anchor="start" x="40" y="4.29" style="font-family: sans-serif; font-size: 11px; fill: rgb(0, 0, 0); fill-opacity: 1; white-space: pre;">Joint 6</text><g class="layers" style="opacity: 1;"><g class="legendfill"/><g class="legendlines"><path class="js-line" d="M5,0h30" style="fill: none; stroke: rgb(0, 170, 174); stroke-opacity: 1; stroke-width: 2px;"/></g><g class="legendsymbols"><g class="legendpoints"/></g></g><rect class="legendtoggle" pointer-events="all" x="0" y="-9.5" width="120" height="19" style="cursor: pointer; fill: rgb(0, 0, 0); fill-opacity: 0;"/></g></g><g class="groups" transform="translate(0, 0)"><g class="traces" transform="translate(0, 128.5)" style="opacity: 1;"><text class="legendtext user-select-none" text-anchor="start" x="40" y="4.29" style="font-family: sans-serif; font-size: 11px; fill: rgb(0, 0, 0); fill-opacity: 1; white-space: pre;">Joint 7</text><g class="layers" style="opacity: 1;"><g class="legendfill"/><g class="legendlines"><path class="js-line" d="M5,0h30" style="fill: none; stroke: rgb(237, 94, 147); stroke-opacity: 1; stroke-width: 2px;"/></g><g class="legendsymbols"><g class="legendpoints"/></g></g><rect class="legendtoggle" pointer-events="all" x="0" y="-9.5" width="120" height="19" style="cursor: pointer; fill: rgb(0, 0, 0); fill-opacity: 0;"/></g></g></g><rect class="scrollbar" rx="20" ry="3" width="0" height="0" x="0" y="0" style="fill: rgb(128, 139, 164); fill-opacity: 1;"/></g><g class="g-gtitle"/><g class="g-xtitle" transform="translate(0,-10.706692913385837)"><text class="xtitle" x="282.02777777777777" y="407.70669291338584" text-anchor="middle" style="font-family: sans-serif; font-size: 15px; fill: rgb(0, 0, 0); opacity: 1; font-weight: normal; white-space: pre;">Time, t</text></g><g class="g-ytitle" transform="translate(6.5322265625,0)"><text class="ytitle" transform="rotate(-90,7.467629046369197,196.875)" x="7.467629046369197" y="196.875" text-anchor="middle" style="font-family: sans-serif; font-size: 15px; fill: rgb(0, 0, 0); opacity: 1; font-weight: normal; white-space: pre;">Angle, rad</text></g><g class="annotation" data-index="0" style="opacity: 1;"><g class="annotation-text-g" transform="rotate(0,282.02777777777777,33.00000000000001)"><g class="cursor-pointer" transform="translate(184, 20)"><rect class="bg" x="0.5" y="0.5" width="195" height="25" style="stroke-width: 1px; stroke: rgb(0, 0, 0); stroke-opacity: 0; fill: rgb(0, 0, 0); fill-opacity: 0;"/><text class="annotation-text" text-anchor="middle" x="97.59375" y="20" style="font-family: sans-serif; font-size: 20px; fill: rgb(0, 0, 0); fill-opacity: 1; white-space: pre;">Plot of Joint Positions</text></g></g></g></g></svg>