<svg class="main-svg" xmlns="http://www.w3.org/2000/svg" xmlns:xlink="http://www.w3.org/1999/xlink" width="600" height="400" viewBox="0 0 600 400"><rect x="0" y="0" width="600" height="400" style="fill: rgb(255, 255, 255); fill-opacity: 1;"/><defs id="defs-229a71"><g class="clips"><clipPath id="clip229a71xyplot" class="plotclip"><rect width="484.52770487022457" height="311.6633858267717"/></clipPath><clipPath class="axesclip" id="clip229a71x"><rect x="32.06022163896179" y="0" width="484.52770487022457" height="400"/></clipPath><clipPath class="axesclip" id="clip229a71y"><rect x="0" y="41.04330708661415" width="600" height="311.6633858267717"/></clipPath><clipPath class="axesclip" id="clip229a71xy"><rect x="32.06022163896179" y="41.04330708661415" width="484.52770487022457" height="311.6633858267717"/></clipPath></g><g class="gradients"/></defs><g class="bglayer"/><g class="layer-below"><g class="imagelayer"/><g class="shapelayer"/></g><g class="cartesianlayer"><g class="subplot xy"><g class="layer-subplot"><g class="shapelayer"/><g class="imagelayer"/></g><g class="gridlayer"><g class="x"><path class="xgrid crisp" transform="translate(45.77022163896179,0)" d="M0,41.04330708661415v311.6633858267717" style="stroke: rgb(0, 0, 0); stroke-opacity: 0.1; stroke-width: 0.5px;"/><path class="xgrid crisp" transform="translate(160.05022163896177,0)" d="M0,41.04330708661415v311.6633858267717" style="stroke: rgb(0, 0, 0); stroke-opacity: 0.1; stroke-width: 0.5px;"/><path class="xgrid crisp" transform="translate(274.3202216389618,0)" d="M0,41.04330708661415v311.6633858267717" style="stroke: rgb(0, 0, 0); stroke-opacity: 0.1; stroke-width: 0.5px;"/><path class="xgrid crisp" transform="translate(388.6002216389618,0)" d="M0,41.04330708661415v311.6633858267717" style="stroke: rgb(0, 0, 0); stroke-opacity: 0.1; stroke-width: 0.5px;"/><path class="xgrid crisp" transform="translate(502.87022163896177,0)" d="M0,41.04330708661415v311.6633858267717" style="stroke: rgb(0, 0, 0); stroke-opacity: 0.1; stroke-width: 0.5px;"/></g><g class="y"><path class="ygrid crisp" transform="translate(0,348.5833070866142)" d="M32.06022163896179,0h484.52770487022457" style="stroke: rgb(0, 0, 0); stroke-opacity: 0.1; stroke-width: 0.5px;"/><path class="ygrid crisp" transform="translate(0,299.44330708661414)" d="M32.06022163896179,0h484.52770487022457" style="stroke: rgb(0, 0, 0); stroke-opacity: 0.1; stroke-width: 0.5px;"/><path class="ygrid crisp" transform="translate(0,250.31330708661415)" d="M32.06022163896179,0h484.52770487022457" style="stroke: rgb(0, 0, 0); stroke-opacity: 0.1; stroke-width: 0.5px;"/><path class="ygrid crisp" transform="translate(0,201.17330708661416)" d="M32.06022163896179,0h484.52770487022457" style="stroke: rgb(0, 0, 0); stroke-opacity: 0.1; stroke-width: 0.5px;"/><path class="ygrid crisp" transform="translate(0,152.03330708661414)" d="M32.06022163896179,0h484.52770487022457" style="stroke: rgb(0, 0, 0); stroke-opacity: 0.1; stroke-width: 0.5px;"/><path class="ygrid crisp" transform="translate(0,102.89330708661416)" d="M32.06022163896179,0h484.52770487022457" style="stroke: rgb(0, 0, 0); stroke-opacity: 0.1; stroke-width: 0.5px;"/><path class="ygrid crisp" transform="translate(0,53.75330708661415)" d="M32.06022163896179,0h484.52770487022457" style="stroke: rgb(0, 0, 0); stroke-opacity: 0.1; stroke-width: 0.5px;"/></g></g><g class="zerolinelayer"/><path class="xlines-below"/><path class="ylines-below"/><g class="overlines-below"/><g class="xaxislayer-below"/><g class="yaxislayer-below"/><g class="overaxes-below"/><g class="plot" transform="translate(32.06022163896179, 41.04330708661415)" clip-path="url('#clip229a71xyplot')"><g class="scatterlayer mlayer"><g class="trace scatter trace2771a9" style="stroke-miterlimit: 2; opacity: 1;"><g class="fills"/><g class="errorbars"/><g class="lines"><path class="js-line" d="M13.71,160.13L27.43,173.49L32,177.32L41.14,183.9L45.71,186.6L54.85,190.41L59.42,191.15L63.99,190.78L68.57,189.4L100.56,180.96L105.13,180.34L114.28,180.59L118.85,181.51L127.99,184.59L132.56,186.89L141.7,192.99L146.27,196.59L164.56,211.02L169.13,213.36L201.12,230.42L205.7,233.1L223.98,244.51L228.55,246.52L237.69,249.61L242.26,250.73L251.41,251.97L255.98,252.18L292.55,252.84L297.12,252.86L319.97,252.04L324.54,251.67L342.83,249.56L347.4,248.33L361.11,243.24L365.68,241.11L374.82,235.75L379.39,231.55L393.11,214.52L397.68,208.75L406.82,199.12L411.39,195.43L425.1,186.45L429.68,183.53L452.53,169.95L457.1,167.61L470.81,160.13" style="vector-effect: non-scaling-stroke; fill: none; stroke: rgb(0, 154, 250); stroke-opacity: 1; stroke-width: 2px; opacity: 1;"/></g><g class="points"/><g class="text"/></g><g class="trace scatter trace1a6279" style="stroke-miterlimit: 2; opacity: 1;"><g class="fills"/><g class="errorbars"/><g class="lines"><path class="js-line" d="M13.71,160.13L36.57,154.41L41.14,152.96L54.85,147.68L59.42,145.55L91.42,129.21L95.99,127.34L109.7,123.11L114.28,122.23L127.99,121.09L132.56,121.19L146.27,122.86L150.84,123.81L164.56,127.78L169.13,129.49L182.84,135.57L187.41,137.88L210.27,150.71L214.84,153.38L246.83,171.56L251.41,173.9L269.69,182.05L274.26,183.77L292.55,189.38L297.12,190.47L315.4,194.02L319.97,194.65L333.68,195.57L338.26,195.58L356.54,194.47L361.11,193.85L379.39,190.24L383.97,189.11L397.68,184.57L402.25,182.58L425.1,172.28L429.68,170.55L447.96,165.05L452.53,163.94L470.81,160.13" style="vector-effect: non-scaling-stroke; fill: none; stroke: rgb(227, 111, 71); stroke-opacity: 1; stroke-width: 2px; opacity: 1;"/></g><g class="points"/><g class="text"/></g><g class="trace scatter trace8d4a5b" style="stroke-miterlimit: 2; opacity: 1;"><g class="fills"/><g class="errorbars"/><g class="lines"><path class="js-line" d="M13.71,160.13L22.86,153.01L27.43,150.3L36.57,146.61L41.14,145.79L45.71,145.7L50.28,146.54L54.85,148.55L59.42,152.15L63.99,157.77L68.57,165.32L91.42,204.54L95.99,212.24L105.13,226.87L109.7,233.15L118.85,243.08L123.42,246.94L127.99,250.23L132.56,252.57L141.7,254.79L146.27,254.93L164.56,253.83L169.13,254.77L178.27,255.59L182.84,255.37L191.98,253.46L196.55,251.76L205.7,246.66L210.27,242.95L237.69,215.45L242.26,210.86L269.69,182.78L274.26,177.46L292.55,154.7L297.12,148.67L310.83,131.25L315.4,125.97L338.26,102.33L342.83,98.49L351.97,92.34L356.54,89.92L365.68,86.51L370.25,85.54L374.82,86.14L379.39,89.03L388.54,99.96L393.11,106.09L402.25,117.28L406.82,121.3L415.96,126.97L420.53,129.38L429.68,134.46L434.25,137.3L447.96,146.3L452.53,148.87L466.24,156.89L470.81,160.13" style="vector-effect: non-scaling-stroke; fill: none; stroke: rgb(62, 164, 78); stroke-opacity: 1; stroke-width: 2px; opacity: 1;"/></g><g class="points"/><g class="text"/></g><g class="trace scatter trace8a6c92" style="stroke-miterlimit: 2; opacity: 1;"><g class="fills"/><g class="errorbars"/><g class="lines"><path class="js-line" d="M13.71,160.13L32,154.22L36.57,152.45L50.28,145.73L54.85,143.02L68.57,133.75L73.14,130.31L91.42,117.35L95.99,114.59L105.13,110.1L109.7,108.5L118.85,106.7L123.42,106.47L132.56,107.28L137.13,108.32L146.27,111.62L150.84,113.8L159.99,119.16L164.56,122.3L178.27,132.86L182.84,136.61L205.7,156.68L210.27,160.86L223.98,172.24L228.55,175.4L237.69,180.79L242.26,182.99L251.41,186.28L255.98,187.47L265.12,188.89L269.69,189.12L283.4,188.21L287.97,187.47L306.26,183.46L310.83,183.1L324.54,184.07L329.11,184.45L351.97,185.43L356.54,185.34L388.54,183.86L393.11,183.23L402.25,181.06L406.82,179.52L438.82,167.73L443.39,166.38L461.67,161.93L466.24,161.03L470.81,160.13" style="vector-effect: non-scaling-stroke; fill: none; stroke: rgb(195, 113, 210); stroke-opacity: 1; stroke-width: 2px; opacity: 1;"/></g><g class="points"/><g class="text"/></g><g class="trace scatter trace03552a" style="stroke-miterlimit: 2; opacity: 1;"><g class="fills"/><g class="errorbars"/><g class="lines"><path class="js-line" d="M13.71,160.13L22.86,161.78L27.43,162.03L36.57,160.95L41.14,160.1L50.28,159.38L54.85,159.62L59.42,158.8L63.99,156.75L68.57,156.52L73.14,157.86L86.85,163.91L91.42,166.84L95.99,170.5L100.56,175.35L132.56,215.41L137.13,222.34L146.27,237.04L150.84,243.53L159.99,254.7L164.56,259.02L173.7,265.04L178.27,266.79L210.27,269.39L214.84,269.17L219.41,267.82L223.98,265.45L233.12,258.08L237.69,253.44L246.83,242.65L251.41,236.6L274.26,206.34L278.83,199.83L292.55,179.39L297.12,171.94L315.4,141.14L319.97,137.23L329.11,131.53L333.68,129.47L351.97,122.27L356.54,120.15L361.11,120.61L365.68,122.29L370.25,124.76L374.82,128.24L383.97,139.04L388.54,142.59L393.11,144.77L397.68,145.36L402.25,144.4L406.82,141.17L415.96,138.75L420.53,138.04L429.68,138.54L434.25,139.92L452.53,148.38L457.1,150.24L461.67,152.42L466.24,155.79L470.81,160.13" style="vector-effect: non-scaling-stroke; fill: none; stroke: rgb(172, 142, 24); stroke-opacity: 1; stroke-width: 2px; opacity: 1;"/></g><g class="points"/><g class="text"/></g><g class="trace scatter trace63d226" style="stroke-miterlimit: 2; opacity: 1;"><g class="fills"/><g class="errorbars"/><g class="lines"><path class="js-line" d="M13.71,160.13L22.86,164.22L27.43,166.86L36.57,173.26L41.14,176.95L50.28,184.94L54.85,189.77L59.42,195.89L63.99,203.63L91.42,259.09L95.99,267.61L105.13,283.22L109.7,288.97L118.85,297.41L123.42,300.21L127.99,302.13L132.56,302.84L137.13,302.42L141.7,301.16L150.84,296.33L155.41,293.09L178.27,276.54L182.84,271.97L191.98,260.86L196.55,254.56L205.7,240.52L210.27,232.68L228.55,198.01L233.12,188.77L251.41,149.97L255.98,139.8L278.83,85.62L283.4,74.69L301.69,31.73L306.26,23.01L310.83,16.24L315.4,12.62L338.26,8.94L342.83,8.82L356.54,9.73L361.11,10.14L370.25,11.17L374.82,15.52L379.39,23.78L383.97,34.95L402.25,79.36L406.82,88.26L420.53,111.08L425.1,117.6L434.25,130.16L438.82,136.01L447.96,145.27L452.53,148.64L470.81,160.13" style="vector-effect: non-scaling-stroke; fill: none; stroke: rgb(0, 170, 174); stroke-opacity: 1; stroke-width: 2px; opacity: 1;"/></g><g class="points"/><g class="text"/></g><g class="trace scatter trace4c609c" style="stroke-miterlimit: 2; opacity: 1;"><g class="fills"/><g class="errorbars"/><g class="lines"><path class="js-line" d="M13.71,160.13L27.43,156.98L32,156.78L45.71,157.29L50.28,156.97L54.85,156.23L59.42,156.69L63.99,158.57L68.57,158.75L82.28,156.97L86.85,157.9L100.56,159.01L105.13,158.97L109.7,159.15L114.28,160.54L137.13,169.32L141.7,169.61L155.41,173.43L159.99,174.91L173.7,180.91L178.27,183.27L187.41,188.91L191.98,190.65L201.12,192.41L205.7,192.14L223.98,186.98L228.55,186.37L246.83,183.1L251.41,182.08L260.55,178.37L265.12,176.05L297.12,160.57L301.69,159.46L310.83,157.31L315.4,157.53L329.11,149.13L333.68,146.91L338.26,144.96L342.83,143.88L351.97,143.99L356.54,145.5L365.68,144.51L370.25,143.81L374.82,142.69L379.39,140.1L383.97,137.01L388.54,135.91L393.11,135.83L397.68,136.95L402.25,139.32L406.82,143.99L415.96,149.05L420.53,151.33L434.25,155.31L438.82,155.44L447.96,156.75L452.53,158.02L461.67,160.78L466.24,160.97L470.81,160.13" style="vector-effect: non-scaling-stroke; fill: none; stroke: rgb(237, 94, 147); stroke-opacity: 1; stroke-width: 2px; opacity: 1;"/></g><g class="points"/><g class="text"/></g></g></g><g class="overplot"/><path class="xlines-above crisp" d="M31.060221638961792,353.20669291338584H516.5879265091863" style="fill: none; stroke-width: 1px; stroke: rgb(0, 0, 0); stroke-opacity: 1;"/><path class="ylines-above crisp" d="M31.560221638961792,41.04330708661415V352.70669291338584" style="fill: none; stroke-width: 1px; stroke: rgb(0, 0, 0); stroke-opacity: 1;"/><g class="overlines-above"/><g class="xaxislayer-above"><path class="xtick ticks crisp" d="M0,352.70669291338584v-5" transform="translate(45.77022163896179,0)" style="stroke: rgb(0, 0, 0); stroke-opacity: 1; stroke-width: 1px;"/><path class="xtick ticks crisp" d="M0,352.70669291338584v-5" transform="translate(160.05022163896177,0)" style="stroke: rgb(0, 0, 0); stroke-opacity: 1; stroke-width: 1px;"/><path class="xtick ticks crisp" d="M0,352.70669291338584v-5" transform="translate(274.3202216389618,0)" style="stroke: rgb(0, 0, 0); stroke-opacity: 1; stroke-width: 1px;"/><path class="xtick ticks crisp" d="M0,352.70669291338584v-5" transform="translate(388.6002216389618,0)" style="stroke: rgb(0, 0, 0); stroke-opacity: 1; stroke-width: 1px;"/><path class="xtick ticks crisp" d="M0,352.70669291338584v-5" transform="translate(502.87022163896177,0)" style="stroke: rgb(0, 0, 0); stroke-opacity: 1; stroke-width: 1px;"/><g class="xtick"><text text-anchor="middle" x="0" y="366.9066929133858" transform="translate(45.77022163896179,0)" style="font-family: sans-serif; font-size: 11px; fill: rgb(0, 0, 0); fill-opacity: 1; white-space: pre;">0.00</text></g><g class="xtick"><text text-anchor="middle" x="0" y="366.9066929133858" transform="translate(160.05022163896177,0)" style="font-family: sans-serif; font-size: 11px; fill: rgb(0, 0, 0); fill-opacity: 1; white-space: pre;">0.25</text></g><g class="xtick"><text text-anchor="middle" x="0" y="366.9066929133858" transform="translate(274.3202216389618,0)" style="font-family: sans-serif; font-size: 11px; fill: rgb(0, 0, 0); fill-opacity: 1; white-space: pre;">0.50</text></g><g class="xtick"><text text-anchor="middle" x="0" y="366.9066929133858" transform="translate(388.6002216389618,0)" style="font-family: sans-serif; font-size: 11px; fill: rgb(0, 0, 0); fill-opacity: 1; white-space: pre;">0.75</text></g><g class="xtick"><text text-anchor="middle" x="0" y="366.9066929133858" transform="translate(502.87022163896177,0)" style="font-family: sans-serif; font-size: 11px; fill: rgb(0, 0, 0); fill-opacity: 1; white-space: pre;">1.00</text></g></g><g class="yaxislayer-above"><path class="ytick ticks crisp" d="M32.06022163896179,0h5" transform="translate(0,348.5833070866142)" style="stroke: rgb(0, 0, 0); stroke-opacity: 1; stroke-width: 1px;"/><path class="ytick ticks crisp" d="M32.06022163896179,0h5" transform="translate(0,299.44330708661414)" style="stroke: rgb(0, 0, 0); stroke-opacity: 1; stroke-width: 1px;"/><path class="ytick ticks crisp" d="M32.06022163896179,0h5" transform="translate(0,250.31330708661415)" style="stroke: rgb(0, 0, 0); stroke-opacity: 1; stroke-width: 1px;"/><path class="ytick ticks crisp" d="M32.06022163896179,0h5" transform="translate(0,201.17330708661416)" style="stroke: rgb(0, 0, 0); stroke-opacity: 1; stroke-width: 1px;"/><path class="ytick ticks crisp" d="M32.06022163896179,0h5" transform="translate(0,152.03330708661414)" style="stroke: rgb(0, 0, 0); stroke-opacity: 1; stroke-width: 1px;"/><path class="ytick ticks crisp" d="M32.06022163896179,0h5" transform="translate(0,102.89330708661416)" style="stroke: rgb(0, 0, 0); stroke-opacity: 1; stroke-width: 1px;"/><path class="ytick ticks crisp" d="M32.06022163896179,0h5" transform="translate(0,53.75330708661415)" style="stroke: rgb(0, 0, 0); stroke-opacity: 1; stroke-width: 1px;"/><g class="ytick"><text text-anchor="end" x="28.860221638961793" y="3.8499999999999996" transform="translate(0,348.5833070866142)" style="font-family: sans-serif; font-size: 11px; fill: rgb(0, 0, 0); fill-opacity: 1; white-space: pre;">-3</text></g><g class="ytick"><text text-anchor="end" x="28.860221638961793" y="3.8499999999999996" transform="translate(0,299.44330708661414)" style="font-family: sans-serif; font-size: 11px; fill: rgb(0, 0, 0); fill-opacity: 1; white-space: pre;">-2</text></g><g class="ytick"><text text-anchor="end" x="28.860221638961793" y="3.8499999999999996" transform="translate(0,250.31330708661415)" style="font-family: sans-serif; font-size: 11px; fill: rgb(0, 0, 0); fill-opacity: 1; white-space: pre;">-1</text></g><g class="ytick"><text text-anchor="end" x="28.860221638961793" y="3.8499999999999996" transform="translate(0,201.17330708661416)" style="font-family: sans-serif; font-size: 11px; fill: rgb(0, 0, 0); fill-opacity: 1; white-space: pre;">0</text></g><g class="ytick"><text text-anchor="end" x="28.860221638961793" y="3.8499999999999996" transform="translate(0,152.03330708661414)" style="font-family: sans-serif; font-size: 11px; fill: rgb(0, 0, 0); fill-opacity: 1; white-space: pre;">1</text></g><g class="ytick"><text text-anchor="end" x="28.860221638961793" y="3.8499999999999996" transform="translate(0,102.89330708661416)" style="font-family: sans-serif; font-size: 11px; fill: rgb(0, 0, 0); fill-opacity: 1; white-space: pre;">2</text></g><g class="ytick"><text text-anchor="end" x="28.860221638961793" y="3.8499999999999996" transform="translate(0,53.75330708661415)" style="font-family: sans-serif; font-size: 11px; fill: rgb(0, 0, 0); fill-opacity: 1; white-space: pre;">3</text></g></g><g class="overaxes-above"/></g></g><g class="polarlayer"/><g class="ternarylayer"/><g class="geolayer"/><g class="pielayer"/><g class="sunburstlayer"/><g class="glimages"/><defs id="topdefs-229a71"><g class="clips"/><clipPath id="legend229a71"><rect width="80" height="143" x="0" y="0"/></clipPath></defs><g class="layer-above"><g class="imagelayer"/><g class="shapelayer"/></g><g class="infolayer"><g class="legend" pointer-events="all" transform="translate(520, 20)"><rect class="bg" shape-rendering="crispEdges" width="80" height="143" x="0" y="0" style="stroke: rgb(0, 0, 0); stroke-opacity: 1; fill: rgb(255, 255, 255); fill-opacity: 1; stroke-width: 0px;"/><g class="scrollbox" transform="translate(0, 0)" clip-path="url('#legend229a71')"><g class="groups" transform="translate(0, 0)"><g class="traces" transform="translate(0, 14.5)" style="opacity: 1;"><text class="legendtext user-select-none" text-anchor="start" x="40" y="4.29" style="font-family: sans-serif; font-size: 11px; fill: rgb(0, 0, 0); fill-opacity: 1; white-space: pre;">Joint 1</text><g class="layers" style="opacity: 1;"><g class="legendfill"/><g class="legendlines"><path class="js-line" d="M5,0h30" style="fill: none; stroke: rgb(0, 154, 250); stroke-opacity: 1; stroke-width: 2px;"/></g><g class="legendsymbols"><g class="legendpoints"/></g></g><rect class="legendtoggle" pointer-events="all" x="0" y="-9.5" width="120" height="19" style="cursor: pointer; fill: rgb(0, 0, 0); fill-opacity: 0;"/></g></g><g class="groups" transform="translate(0, 0)"><g class="traces" transform="translate(0, 33.5)" style="opacity: 1;"><text class="legendtext user-select-none" text-anchor="start" x="40" y="4.29" style="font-family: sans-serif; font-size: 11px; fill: rgb(0, 0, 0); fill-opacity: 1; white-space: pre;">Joint 2</text><g class="layers" style="opacity: 1;"><g class="legendfill"/><g class="legendlines"><path class="js-line" d="M5,0h30" style="fill: none; stroke: rgb(227, 111, 71); stroke-opacity: 1; stroke-width: 2px;"/></g><g class="legendsymbols"><g class="legendpoints"/></g></g><rect class="legendtoggle" pointer-events="all" x="0" y="-9.5" width="120" height="19" style="cursor: pointer; fill: rgb(0, 0, 0); fill-opacity: 0;"/></g></g><g class="groups" transform="translate(0, 0)"><g class="traces" transform="translate(0, 52.5)" style="opacity: 1;"><text class="legendtext user-select-none" text-anchor="start" x="40" y="4.29" style="font-family: sans-serif; font-size: 11px; fill: rgb(0, 0, 0); fill-opacity: 1; white-space: pre;">Joint 3</text><g class="layers" style="opacity: 1;"><g class="legendfill"/><g class="legendlines"><path class="js-line" d="M5,0h30" style="fill: none; stroke: rgb(62, 164, 78); stroke-opacity: 1; stroke-width: 2px;"/></g><g class="legendsymbols"><g class="legendpoints"/></g></g><rect class="legendtoggle" pointer-events="all" x="0" y="-9.5" width="120" height="19" style="cursor: pointer; fill: rgb(0, 0, 0); fill-opacity: 0;"/></g></g><g class="groups" transform="translate(0, 0)"><g class="traces" transform="translate(0, 71.5)" style="opacity: 1;"><text class="legendtext user-select-none" text-anchor="start" x="40" y="4.29" style="font-family: sans-serif; font-size: 11px; fill: rgb(0, 0, 0); fill-opacity: 1; white-space: pre;">Joint 4</text><g class="layers" style="opacity: 1;"><g class="legendfill"/><g class="legendlines"><path class="js-line" d="M5,0h30" style="fill: none; stroke: rgb(195, 113, 210); stroke-opacity: 1; stroke-width: 2px;"/></g><g class="legendsymbols"><g class="legendpoints"/></g></g><rect class="legendtoggle" pointer-events="all" x="0" y="-9.5" width="120" height="19" style="cursor: pointer; fill: rgb(0, 0, 0); fill-opacity: 0;"/></g></g><g class="groups" transform="translate(0, 0)"><g class="traces" transform="translate(0, 90.5)" style="opacity: 1;"><text class="legendtext user-select-none" text-anchor="start" x="40" y="4.29" style="font-family: sans-serif; font-size: 11px; fill: rgb(0, 0, 0); fill-opacity: 1; white-space: pre;">Joint 5</text><g class="layers" style="opacity: 1;"><g class="legendfill"/><g class="legendlines"><path class="js-line" d="M5,0h30" style="fill: none; stroke: rgb(172, 142, 24); stroke-opacity: 1; stroke-width: 2px;"/></g><g class="legendsymbols"><g class="legendpoints"/></g></g><rect class="legendtoggle" pointer-events="all" x="0" y="-9.5" width="120" height="19" style="cursor: pointer; fill: rgb(0, 0, 0); fill-opacity: 0;"/></g></g><g class="groups" transform="translate(0, 0)"><g class="traces" transform="translate(0, 109.5)" style="opacity: 1;"><text class="legendtext user-select-none" text-anchor="start" x="40" y="4.29" style="font-family: sans-serif; font-size: 11px; fill: rgb(0, 0, 0); fill-opacity: 1; white-space: pre;">Joint 6</text><g class="layers" style="opacity: 1;"><g class="legendfill"/><g class="legendlines"><path class="js-line" d="M5,0h30" style="fill: none; stroke: rgb(0, 170, 174); stroke-opacity: 1; stroke-width: 2px;"/></g><g class="legendsymbols"><g class="legendpoints"/></g></g><rect class="legendtoggle" pointer-events="all" x="0" y="-9.5" width="120" height="19" style="cursor: pointer; fill: rgb(0, 0, 0); fill-opacity: 0;"/></g></g><g class="groups" transform="translate(0, 0)"><g class="traces" transform="translate(0, 128.5)" style="opacity: 1;"><text class="legendtext user-select-none" text-anchor="start" x="40" y="4.29" style="font-family: sans-serif; font-size: 11px; fill: rgb(0, 0, 0); fill-opacity: 1; white-space: pre;">Joint 7</text><g class="layers" style="opacity: 1;"><g class="legendfill"/><g class="legendlines"><path class="js-line" d="M5,0h30" style="fill: none; stroke: rgb(237, 94, 147); stroke-opacity: 1; stroke-width: 2px;"/></g><g class="legendsymbols"><g class="legendpoints"/></g></g><rect class="legendtoggle" pointer-events="all" x="0" y="-9.5" width="120" height="19" style="cursor: pointer; fill: rgb(0, 0, 0); fill-opacity: 0;"/></g></g></g><rect class="scrollbar" rx="20" ry="3" width="0" height="0" x="0" y="0" style="fill: rgb(128, 139, 164); fill-opacity: 1;"/></g><g class="g-gtitle"/><g class="g-xtitle" transform="translate(0,-10.706692913385837)"><text class="xtitle" x="274.3240740740741" y="407.70669291338584" text-anchor="middle" style="font-family: sans-serif; font-size: 15px; fill: rgb(0, 0, 0); opacity: 1; font-weight: normal; white-space: pre;">Time, t</text></g><g class="g-ytitle" transform="translate(21.939453125,0)"><text class="ytitle" transform="rotate(-90,-7.939778361038208,196.875)" x="-7.939778361038208" y="196.875" text-anchor="middle" style="font-family: sans-serif; font-size: 15px; fill: rgb(0, 0, 0); opacity: 1; font-weight: normal; white-space: pre;">Velocity</text></g><g class="annotation" data-index="0" style="opacity: 1;"><g class="annotation-text-g" transform="rotate(0,274.3240740740741,33.00000000000001)"><g class="cursor-pointer" transform="translate(175, 20)"><rect class="bg" x="0.5" y="0.5" width="198" height="25" style="stroke-width: 1px; stroke: rgb(0, 0, 0); stroke-opacity: 0; fill: rgb(0, 0, 0); fill-opacity: 0;"/><text class="annotation-text" text-anchor="middle" x="99.265625" y="20" style="font-family: sans-serif; font-size: 20px; fill: rgb(0, 0, 0); fill-opacity: 1; white-space: pre;">Plot of Joint Velocities</text></g></g></g></g></svg>