<svg class="main-svg" xmlns="http://www.w3.org/2000/svg" xmlns:xlink="http://www.w3.org/1999/xlink" width="600" height="400" viewBox="0 0 600 400"><rect x="0" y="0" width="600" height="400" style="fill: rgb(255, 255, 255); fill-opacity: 1;"/><defs id="defs-74cea4"><g class="clips"><clipPath id="clip74cea4xyplot" class="plotclip"><rect width="463.1633858267716" height="311.6633858267717"/></clipPath><clipPath class="axesclip" id="clip74cea4x"><rect x="73.29330708661416" y="0" width="463.1633858267716" height="400"/></clipPath><clipPath class="axesclip" id="clip74cea4y"><rect x="0" y="41.04330708661415" width="600" height="311.6633858267717"/></clipPath><clipPath class="axesclip" id="clip74cea4xy"><rect x="73.29330708661416" y="41.04330708661415" width="463.1633858267716" height="311.6633858267717"/></clipPath></g><g class="gradients"/></defs><g class="bglayer"/><g class="layer-below"><g class="imagelayer"/><g class="shapelayer"/></g><g class="cartesianlayer"><g class="subplot xy"><g class="layer-subplot"><g class="shapelayer"/><g class="imagelayer"/></g><g class="gridlayer"><g class="x"><path class="xgrid crisp" transform="translate(86.40330708661416,0)" d="M0,41.04330708661415v311.6633858267717" style="stroke: rgb(0, 0, 0); stroke-opacity: 0.1; stroke-width: 0.5px;"/><path class="xgrid crisp" transform="translate(195.64330708661416,0)" d="M0,41.04330708661415v311.6633858267717" style="stroke: rgb(0, 0, 0); stroke-opacity: 0.1; stroke-width: 0.5px;"/><path class="xgrid crisp" transform="translate(304.8733070866142,0)" d="M0,41.04330708661415v311.6633858267717" style="stroke: rgb(0, 0, 0); stroke-opacity: 0.1; stroke-width: 0.5px;"/><path class="xgrid crisp" transform="translate(414.11330708661416,0)" d="M0,41.04330708661415v311.6633858267717" style="stroke: rgb(0, 0, 0); stroke-opacity: 0.1; stroke-width: 0.5px;"/><path class="xgrid crisp" transform="translate(523.3433070866142,0)" d="M0,41.04330708661415v311.6633858267717" style="stroke: rgb(0, 0, 0); stroke-opacity: 0.1; stroke-width: 0.5px;"/></g><g class="y"><path class="ygrid crisp" transform="translate(0,326.73330708661416)" d="M73.29330708661416,0h463.1633858267716" style="stroke: rgb(0, 0, 0); stroke-opacity: 0.1; stroke-width: 0.5px;"/><path class="ygrid crisp" transform="translate(0,261.80330708661415)" d="M73.29330708661416,0h463.1633858267716" style="stroke: rgb(0, 0, 0); stroke-opacity: 0.1; stroke-width: 0.5px;"/><path class="ygrid crisp" transform="translate(0,196.87330708661415)" d="M73.29330708661416,0h463.1633858267716" style="stroke: rgb(0, 0, 0); stroke-opacity: 0.1; stroke-width: 0.5px;"/><path class="ygrid crisp" transform="translate(0,131.94330708661414)" d="M73.29330708661416,0h463.1633858267716" style="stroke: rgb(0, 0, 0); stroke-opacity: 0.1; stroke-width: 0.5px;"/><path class="ygrid crisp" transform="translate(0,67.01330708661415)" d="M73.29330708661416,0h463.1633858267716" style="stroke: rgb(0, 0, 0); stroke-opacity: 0.1; stroke-width: 0.5px;"/></g></g><g class="zerolinelayer"/><path class="xlines-below"/><path class="ylines-below"/><g class="overlines-below"/><g class="xaxislayer-below"/><g class="yaxislayer-below"/><g class="overaxes-below"/><g class="plot" transform="translate(73.29330708661416, 41.04330708661415)" clip-path="url('#clip74cea4xyplot')"><g class="scatterlayer mlayer"><g class="trace scatter tracee94b3c" style="stroke-miterlimit: 2; opacity: 1;"><g class="fills"/><g class="errorbars"/><g class="lines"><path class="js-line" d="M13.11,45.9L34.96,46.34L39.33,45.54L48.06,42.17L52.43,40.21L61.17,37.72L65.54,37.38L69.91,37.73L74.28,38.85L91.76,45.57L96.13,46.3L100.5,46.06L104.87,45.02L117.98,43.8L122.35,43.81L148.56,45.68L152.93,46.24L161.67,48.68L166.04,50.06L192.26,53.75L196.63,53.89L205.36,54.57L209.73,55.74L227.21,61.84L231.58,63.82L249.06,71.87L253.43,73L266.54,75.43L270.91,76.52L297.12,81.96L301.49,84.35L305.86,88L310.23,88.18L314.6,86.01L318.97,82.6L327.71,76.43L332.08,74.8L336.45,74.31L340.82,74.71L345.19,75.44L349.56,74.89L353.93,72.36L358.3,67.36L367.04,55.51L371.4,50.9L375.77,47.73L380.14,46.01L401.99,41.64L406.36,41.22L419.47,40.77L423.84,41.22L436.95,42.78L441.32,42.54L450.05,41.33" style="vector-effect: non-scaling-stroke; fill: none; stroke: rgb(0, 154, 250); stroke-opacity: 1; stroke-width: 2px; opacity: 1;"/></g><g class="points"/><g class="text"/></g><g class="trace scatter trace77c00b" style="stroke-miterlimit: 2; opacity: 1;"><g class="fills"/><g class="errorbars"/><g class="lines"><path class="js-line" d="M13.11,160.72L17.48,161.74L21.85,151.15L30.59,113.01L34.96,92.61L39.33,75.02L43.69,61.4L48.06,51.45L52.43,44.75L56.8,40.84L61.17,39.49L69.91,40.99L74.28,42.08L104.87,48.78L109.24,48.32L117.98,46.74L122.35,46.61L131.08,47.48L135.45,48.2L157.3,52.07L161.67,53.21L179.15,57.17L183.52,58.79L192.26,60.55L196.63,60.81L205.36,61.05L209.73,62.93L214.1,66.46L218.47,71.62L222.84,78.4L227.21,86.83L235.95,108.86L240.32,122.23L249.06,149.96L253.43,161.65L257.8,170.85L262.17,177L266.54,179.71L270.91,178.73L275.28,173.91L279.65,165.21L284.02,152.44L288.38,134.55L297.12,86.73L301.49,62.03L305.86,45.22L310.23,40.28L314.6,43.93L318.97,55.44L323.34,73.88L327.71,97.96L345.19,212.4L349.56,234.81L353.93,249.38L358.3,254.06L367.04,257.13L371.4,260.97L380.14,269.44L384.51,272.16L397.62,276.92L401.99,278.11L406.36,278.71L410.73,277.38L415.1,273.38L419.47,264.46L423.84,251L428.21,233.15L436.95,187.97L441.32,164.69L445.69,144.95L450.05,132.62" style="vector-effect: non-scaling-stroke; fill: none; stroke: rgb(227, 111, 71); stroke-opacity: 1; stroke-width: 2px; opacity: 1;"/></g><g class="points"/><g class="text"/></g><g class="trace scatter trace31802b" style="stroke-miterlimit: 2; opacity: 1;"><g class="fills"/><g class="errorbars"/><g class="lines"><path class="js-line" d="M13.11,243.3L17.48,243.3L21.85,244.79L26.22,247.62L30.59,251.41L48.06,268.07L52.43,271L61.17,275.11L65.54,276.42L69.91,276.9L74.28,275.97L78.65,273.27L83.02,268.81L91.76,254.8L96.13,246.69L104.87,231.93L109.24,226.61L113.61,223.57L117.98,223.33L122.35,226.06L126.71,231.6L139.82,254.54L144.19,260.56L148.56,264.64L152.93,266.48L157.3,266.57L161.67,265.82L174.78,263.33L179.15,263.6L187.89,264.66L192.26,264.69L214.1,264.56L218.47,264.81L240.32,266.71L244.69,265.63L249.06,263.24L253.43,258.89L257.8,252.14L262.17,242.98L266.54,231.31L270.91,217.04L279.65,180.94L284.02,159.62L297.12,92.32L301.49,76.77L305.86,66.65L310.23,58.64L318.97,47.24L323.34,42.88L327.71,39.13L332.08,36.43L336.45,35.16L340.82,35.68L345.19,38.52L349.56,44.81L353.93,56.23L358.3,74.72L371.4,146.04L375.77,169.69L388.88,235.24L393.25,254.04L397.62,268.94L401.99,278.56L406.36,281.88L410.73,279.51L415.1,271.16L419.47,259.23L428.21,227.42L432.58,210.47L441.32,181.49L445.69,171.76L450.05,166.96" style="vector-effect: non-scaling-stroke; fill: none; stroke: rgb(62, 164, 78); stroke-opacity: 1; stroke-width: 2px; opacity: 1;"/></g><g class="points"/><g class="text"/></g><g class="trace scatter traceb25977" style="stroke-miterlimit: 2; opacity: 1;"><g class="fills"/><g class="errorbars"/><g class="lines"><path class="js-line" d="M13.11,25.97L450.05,25.97" style="vector-effect: non-scaling-stroke; fill: none; stroke: rgb(255, 0, 0); stroke-opacity: 1; stroke-width: 4px; opacity: 1; stroke-dasharray: 4px, 4px;"/></g><g class="points"/><g class="text"/></g><g class="trace scatter tracee55e8f" style="stroke-miterlimit: 2; opacity: 1;"><g class="fills"/><g class="errorbars"/><g class="lines"><path class="js-line" d="M13.11,285.69L450.05,285.69" style="vector-effect: non-scaling-stroke; fill: none; stroke: rgb(255, 0, 0); stroke-opacity: 1; stroke-width: 4px; opacity: 1; stroke-dasharray: 4px, 4px;"/></g><g class="points"/><g class="text"/></g></g></g><g class="overplot"/><path class="xlines-above crisp" d="M72.29330708661416,353.20669291338584H536.4566929133857" style="fill: none; stroke-width: 1px; stroke: rgb(0, 0, 0); stroke-opacity: 1;"/><path class="ylines-above crisp" d="M72.79330708661416,41.04330708661415V352.70669291338584" style="fill: none; stroke-width: 1px; stroke: rgb(0, 0, 0); stroke-opacity: 1;"/><g class="overlines-above"/><g class="xaxislayer-above"><path class="xtick ticks crisp" d="M0,352.70669291338584v-5" transform="translate(86.40330708661416,0)" style="stroke: rgb(0, 0, 0); stroke-opacity: 1; stroke-width: 1px;"/><path class="xtick ticks crisp" d="M0,352.70669291338584v-5" transform="translate(195.64330708661416,0)" style="stroke: rgb(0, 0, 0); stroke-opacity: 1; stroke-width: 1px;"/><path class="xtick ticks crisp" d="M0,352.70669291338584v-5" transform="translate(304.8733070866142,0)" style="stroke: rgb(0, 0, 0); stroke-opacity: 1; stroke-width: 1px;"/><path class="xtick ticks crisp" d="M0,352.70669291338584v-5" transform="translate(414.11330708661416,0)" style="stroke: rgb(0, 0, 0); stroke-opacity: 1; stroke-width: 1px;"/><path class="xtick ticks crisp" d="M0,352.70669291338584v-5" transform="translate(523.3433070866142,0)" style="stroke: rgb(0, 0, 0); stroke-opacity: 1; stroke-width: 1px;"/><g class="xtick"><text text-anchor="middle" x="0" y="366.9066929133858" transform="translate(86.40330708661416,0)" style="font-family: sans-serif; font-size: 11px; fill: rgb(0, 0, 0); fill-opacity: 1; white-space: pre;">0.00</text></g><g class="xtick"><text text-anchor="middle" x="0" y="366.9066929133858" transform="translate(195.64330708661416,0)" style="font-family: sans-serif; font-size: 11px; fill: rgb(0, 0, 0); fill-opacity: 1; white-space: pre;">0.25</text></g><g class="xtick"><text text-anchor="middle" x="0" y="366.9066929133858" transform="translate(304.8733070866142,0)" style="font-family: sans-serif; font-size: 11px; fill: rgb(0, 0, 0); fill-opacity: 1; white-space: pre;">0.50</text></g><g class="xtick"><text text-anchor="middle" x="0" y="366.9066929133858" transform="translate(414.11330708661416,0)" style="font-family: sans-serif; font-size: 11px; fill: rgb(0, 0, 0); fill-opacity: 1; white-space: pre;">0.75</text></g><g class="xtick"><text text-anchor="middle" x="0" y="366.9066929133858" transform="translate(523.3433070866142,0)" style="font-family: sans-serif; font-size: 11px; fill: rgb(0, 0, 0); fill-opacity: 1; white-space: pre;">1.00</text></g></g><g class="yaxislayer-above"><path class="ytick ticks crisp" d="M73.29330708661416,0h5" transform="translate(0,326.73330708661416)" style="stroke: rgb(0, 0, 0); stroke-opacity: 1; stroke-width: 1px;"/><path class="ytick ticks crisp" d="M73.29330708661416,0h5" transform="translate(0,261.80330708661415)" style="stroke: rgb(0, 0, 0); stroke-opacity: 1; stroke-width: 1px;"/><path class="ytick ticks crisp" d="M73.29330708661416,0h5" transform="translate(0,196.87330708661415)" style="stroke: rgb(0, 0, 0); stroke-opacity: 1; stroke-width: 1px;"/><path class="ytick ticks crisp" d="M73.29330708661416,0h5" transform="translate(0,131.94330708661414)" style="stroke: rgb(0, 0, 0); stroke-opacity: 1; stroke-width: 1px;"/><path class="ytick ticks crisp" d="M73.29330708661416,0h5" transform="translate(0,67.01330708661415)" style="stroke: rgb(0, 0, 0); stroke-opacity: 1; stroke-width: 1px;"/><g class="ytick"><text text-anchor="end" x="70.09330708661416" y="3.8499999999999996" transform="translate(0,326.73330708661416)" style="font-family: sans-serif; font-size: 11px; fill: rgb(0, 0, 0); fill-opacity: 1; white-space: pre;">-0.0010</text></g><g class="ytick"><text text-anchor="end" x="70.09330708661416" y="3.8499999999999996" transform="translate(0,261.80330708661415)" style="font-family: sans-serif; font-size: 11px; fill: rgb(0, 0, 0); fill-opacity: 1; white-space: pre;">-0.0005</text></g><g class="ytick"><text text-anchor="end" x="70.09330708661416" y="3.8499999999999996" transform="translate(0,196.87330708661415)" style="font-family: sans-serif; font-size: 11px; fill: rgb(0, 0, 0); fill-opacity: 1; white-space: pre;">0.0000</text></g><g class="ytick"><text text-anchor="end" x="70.09330708661416" y="3.8499999999999996" transform="translate(0,131.94330708661414)" style="font-family: sans-serif; font-size: 11px; fill: rgb(0, 0, 0); fill-opacity: 1; white-space: pre;">0.0005</text></g><g class="ytick"><text text-anchor="end" x="70.09330708661416" y="3.8499999999999996" transform="translate(0,67.01330708661415)" style="font-family: sans-serif; font-size: 11px; fill: rgb(0, 0, 0); fill-opacity: 1; white-space: pre;">0.0010</text></g></g><g class="overaxes-above"/></g></g><g class="polarlayer"/><g class="ternarylayer"/><g class="geolayer"/><g class="pielayer"/><g class="sunburstlayer"/><g class="glimages"/><defs id="topdefs-74cea4"><g class="clips"/><clipPath id="legend74cea4"><rect width="60" height="105" x="0" y="0"/></clipPath></defs><g class="layer-above"><g class="imagelayer"/><g class="shapelayer"/></g><g class="infolayer"><g class="legend" pointer-events="all" transform="translate(540, 20)"><rect class="bg" shape-rendering="crispEdges" width="60" height="105" x="0" y="0" style="stroke: rgb(0, 0, 0); stroke-opacity: 1; fill: rgb(255, 255, 255); fill-opacity: 1; stroke-width: 0px;"/><g class="scrollbox" transform="translate(0, 0)" clip-path="url('#legend74cea4')"><g class="groups" transform="translate(0, 0)"><g class="traces" transform="translate(0, 14.5)" style="opacity: 1;"><text class="legendtext user-select-none" text-anchor="start" x="40" y="4.29" style="font-family: sans-serif; font-size: 11px; fill: rgb(0, 0, 0); fill-opacity: 1; white-space: pre;">x</text><g class="layers" style="opacity: 1;"><g class="legendfill"/><g class="legendlines"><path class="js-line" d="M5,0h30" style="fill: none; stroke: rgb(0, 154, 250); stroke-opacity: 1; stroke-width: 2px;"/></g><g class="legendsymbols"><g class="legendpoints"/></g></g><rect class="legendtoggle" pointer-events="all" x="0" y="-9.5" width="100" height="19" style="cursor: pointer; fill: rgb(0, 0, 0); fill-opacity: 0;"/></g></g><g class="groups" transform="translate(0, 0)"><g class="traces" transform="translate(0, 33.5)" style="opacity: 1;"><text class="legendtext user-select-none" text-anchor="start" x="40" y="4.29" style="font-family: sans-serif; font-size: 11px; fill: rgb(0, 0, 0); fill-opacity: 1; white-space: pre;">y</text><g class="layers" style="opacity: 1;"><g class="legendfill"/><g class="legendlines"><path class="js-line" d="M5,0h30" style="fill: none; stroke: rgb(227, 111, 71); stroke-opacity: 1; stroke-width: 2px;"/></g><g class="legendsymbols"><g class="legendpoints"/></g></g><rect class="legendtoggle" pointer-events="all" x="0" y="-9.5" width="100" height="19" style="cursor: pointer; fill: rgb(0, 0, 0); fill-opacity: 0;"/></g></g><g class="groups" transform="translate(0, 0)"><g class="traces" transform="translate(0, 52.5)" style="opacity: 1;"><text class="legendtext user-select-none" text-anchor="start" x="40" y="4.29" style="font-family: sans-serif; font-size: 11px; fill: rgb(0, 0, 0); fill-opacity: 1; white-space: pre;">z</text><g class="layers" style="opacity: 1;"><g class="legendfill"/><g class="legendlines"><path class="js-line" d="M5,0h30" style="fill: none; stroke: rgb(62, 164, 78); stroke-opacity: 1; stroke-width: 2px;"/></g><g class="legendsymbols"><g class="legendpoints"/></g></g><rect class="legendtoggle" pointer-events="all" x="0" y="-9.5" width="100" height="19" style="cursor: pointer; fill: rgb(0, 0, 0); fill-opacity: 0;"/></g></g><g class="groups" transform="translate(0, 0)"><g class="traces" transform="translate(0, 71.5)" style="opacity: 1;"><text class="legendtext user-select-none" text-anchor="start" x="40" y="4.29" style="font-family: sans-serif; font-size: 11px; fill: rgb(0, 0, 0); fill-opacity: 1; white-space: pre;">ub</text><g class="layers" style="opacity: 1;"><g class="legendfill"/><g class="legendlines"><path class="js-line" d="M5,0h30" style="fill: none; stroke: rgb(255, 0, 0); stroke-opacity: 1; stroke-dasharray: 4px, 4px; stroke-width: 4px;"/></g><g class="legendsymbols"><g class="legendpoints"/></g></g><rect class="legendtoggle" pointer-events="all" x="0" y="-9.5" width="100" height="19" style="cursor: pointer; fill: rgb(0, 0, 0); fill-opacity: 0;"/></g></g><g class="groups" transform="translate(0, 0)"><g class="traces" transform="translate(0, 90.5)" style="opacity: 1;"><text class="legendtext user-select-none" text-anchor="start" x="40" y="4.29" style="font-family: sans-serif; font-size: 11px; fill: rgb(0, 0, 0); fill-opacity: 1; white-space: pre;">lb</text><g class="layers" style="opacity: 1;"><g class="legendfill"/><g class="legendlines"><path class="js-line" d="M5,0h30" style="fill: none; stroke: rgb(255, 0, 0); stroke-opacity: 1; stroke-dasharray: 4px, 4px; stroke-width: 4px;"/></g><g class="legendsymbols"><g class="legendpoints"/></g></g><rect class="legendtoggle" pointer-events="all" x="0" y="-9.5" width="100" height="19" style="cursor: pointer; fill: rgb(0, 0, 0); fill-opacity: 0;"/></g></g></g><rect class="scrollbar" rx="20" ry="3" width="0" height="0" x="0" y="0" style="fill: rgb(128, 139, 164); fill-opacity: 1;"/></g><g class="g-gtitle"/><g class="g-xtitle" transform="translate(0,-10.706692913385837)"><text class="xtitle" x="304.875" y="407.70669291338584" text-anchor="middle" style="font-family: sans-serif; font-size: 15px; fill: rgb(0, 0, 0); opacity: 1; font-weight: normal; white-space: pre;">Time, t</text></g><g class="g-ytitle" transform="translate(-2.85546875,0)"><text class="ytitle" transform="rotate(-90,33.29330708661416,196.875)" x="33.29330708661416" y="196.875" text-anchor="middle" style="font-family: sans-serif; font-size: 15px; fill: rgb(0, 0, 0); opacity: 1; font-weight: normal; white-space: pre;">Position</text></g><g class="annotation" data-index="0" style="opacity: 1;"><g class="annotation-text-g" transform="rotate(0,304.875,33.00000000000001)"><g class="cursor-pointer" transform="translate(195, 20)"><rect class="bg" x="0.5" y="0.5" width="219" height="25" style="stroke-width: 1px; stroke: rgb(0, 0, 0); stroke-opacity: 0; fill: rgb(0, 0, 0); fill-opacity: 0;"/><text class="annotation-text" text-anchor="middle" x="109.453125" y="20" style="font-family: sans-serif; font-size: 20px; fill: rgb(0, 0, 0); fill-opacity: 1; white-space: pre;">End-effector {x,y,z} error</text></g></g></g></g></svg>