<svg class="main-svg" xmlns="http://www.w3.org/2000/svg" xmlns:xlink="http://www.w3.org/1999/xlink" width="600" height="400" viewBox="0 0 600 400"><rect x="0" y="0" width="600" height="400" style="fill: rgb(255, 255, 255); fill-opacity: 1;"/><defs id="defs-6d424c"><g class="clips"><clipPath id="clip6d424cxyplot" class="plotclip"><rect width="484.52770487022457" height="311.6633858267717"/></clipPath><clipPath class="axesclip" id="clip6d424cx"><rect x="32.06022163896179" y="0" width="484.52770487022457" height="400"/></clipPath><clipPath class="axesclip" id="clip6d424cy"><rect x="0" y="41.04330708661415" width="600" height="311.6633858267717"/></clipPath><clipPath class="axesclip" id="clip6d424cxy"><rect x="32.06022163896179" y="41.04330708661415" width="484.52770487022457" height="311.6633858267717"/></clipPath></g><g class="gradients"/></defs><g class="bglayer"/><g class="layer-below"><g class="imagelayer"/><g class="shapelayer"/></g><g class="cartesianlayer"><g class="subplot xy"><g class="layer-subplot"><g class="shapelayer"/><g class="imagelayer"/></g><g class="gridlayer"><g class="x"><path class="xgrid crisp" transform="translate(45.77022163896179,0)" d="M0,41.04330708661415v311.6633858267717" style="stroke: rgb(0, 0, 0); stroke-opacity: 0.1; stroke-width: 0.5px;"/><path class="xgrid crisp" transform="translate(161.20022163896178,0)" d="M0,41.04330708661415v311.6633858267717" style="stroke: rgb(0, 0, 0); stroke-opacity: 0.1; stroke-width: 0.5px;"/><path class="xgrid crisp" transform="translate(276.63022163896176,0)" d="M0,41.04330708661415v311.6633858267717" style="stroke: rgb(0, 0, 0); stroke-opacity: 0.1; stroke-width: 0.5px;"/><path class="xgrid crisp" transform="translate(392.0602216389618,0)" d="M0,41.04330708661415v311.6633858267717" style="stroke: rgb(0, 0, 0); stroke-opacity: 0.1; stroke-width: 0.5px;"/><path class="xgrid crisp" transform="translate(507.49022163896177,0)" d="M0,41.04330708661415v311.6633858267717" style="stroke: rgb(0, 0, 0); stroke-opacity: 0.1; stroke-width: 0.5px;"/></g><g class="y"><path class="ygrid crisp" transform="translate(0,321.85330708661417)" d="M32.06022163896179,0h484.52770487022457" style="stroke: rgb(0, 0, 0); stroke-opacity: 0.1; stroke-width: 0.5px;"/><path class="ygrid crisp" transform="translate(0,271.99330708661415)" d="M32.06022163896179,0h484.52770487022457" style="stroke: rgb(0, 0, 0); stroke-opacity: 0.1; stroke-width: 0.5px;"/><path class="ygrid crisp" transform="translate(0,222.12330708661415)" d="M32.06022163896179,0h484.52770487022457" style="stroke: rgb(0, 0, 0); stroke-opacity: 0.1; stroke-width: 0.5px;"/><path class="ygrid crisp" transform="translate(0,172.26330708661413)" d="M32.06022163896179,0h484.52770487022457" style="stroke: rgb(0, 0, 0); stroke-opacity: 0.1; stroke-width: 0.5px;"/><path class="ygrid crisp" transform="translate(0,122.39330708661414)" d="M32.06022163896179,0h484.52770487022457" style="stroke: rgb(0, 0, 0); stroke-opacity: 0.1; stroke-width: 0.5px;"/><path class="ygrid crisp" transform="translate(0,72.53330708661414)" d="M32.06022163896179,0h484.52770487022457" style="stroke: rgb(0, 0, 0); stroke-opacity: 0.1; stroke-width: 0.5px;"/></g></g><g class="zerolinelayer"/><path class="xlines-below"/><path class="ylines-below"/><g class="overlines-below"/><g class="xaxislayer-below"/><g class="yaxislayer-below"/><g class="overaxes-below"/><g class="plot" transform="translate(32.06022163896179, 41.04330708661415)" clip-path="url('#clip6d424cxyplot')"><g class="scatterlayer mlayer"><g class="trace scatter trace0f354e" style="stroke-miterlimit: 2; opacity: 1;"><g class="fills"/><g class="errorbars"/><g class="lines"><path class="js-line" d="M13.71,268.17L32.18,267.99L36.8,268.11L64.5,269.19L69.12,270.05L82.97,271.54L87.59,271.82L101.44,271.72L106.06,271.39L119.91,269.4L124.53,268.33L138.38,264.06L142.99,262.31L156.85,256.04L161.46,253.55L170.7,248.66L175.31,246.46L221.49,224.86L226.1,222.82L249.19,214.12L253.81,212.72L281.51,206.05L286.13,205.15L299.98,203.11L304.6,202.83L327.68,202.72L332.3,202.68L364.62,202L369.24,202.21L378.47,202.11L383.09,201.64L396.94,201.7L401.56,202.18L406.17,203.07L410.79,204.87L424.64,209.06L429.26,210.22L447.73,214.16L452.35,214.9L466.2,216.21L470.81,216.35" style="vector-effect: non-scaling-stroke; fill: none; stroke: rgb(0, 154, 250); stroke-opacity: 1; stroke-width: 2px; opacity: 1;"/></g><g class="points"/><g class="text"/></g><g class="trace scatter trace38e719" style="stroke-miterlimit: 2; opacity: 1;"><g class="fills"/><g class="errorbars"/><g class="lines"><path class="js-line" d="M13.71,22.48L27.56,20.3L32.18,19.16L46.03,14.89L50.65,13.12L59.88,9.26L64.5,8.82L78.35,15.08L82.97,17.85L96.82,26.82L101.44,30.41L124.53,50.15L129.14,54.68L147.61,72.33L152.23,76.44L175.31,96.07L179.93,99.65L193.78,109.27L198.4,111.96L212.25,118.67L216.87,120.47L230.72,124.3L235.34,125.09L244.57,125.87L249.19,125.78L263.04,124.17L267.66,123.3L281.51,119.62L286.13,118L295.36,114.15L299.98,111.57L318.45,96.27L323.06,92.01L346.15,69.36L350.77,64.57L396.94,16.2L401.56,11.92L406.17,8.93L410.79,9.8L424.64,13.36L429.26,15.13L443.11,20.22L447.73,21.59L461.58,24.27L466.2,24.65L470.81,24.66" style="vector-effect: non-scaling-stroke; fill: none; stroke: rgb(227, 111, 71); stroke-opacity: 1; stroke-width: 2px; opacity: 1;"/></g><g class="points"/><g class="text"/></g><g class="trace scatter trace40c3a0" style="stroke-miterlimit: 2; opacity: 1;"><g class="fills"/><g class="errorbars"/><g class="lines"><path class="js-line" d="M13.71,242.96L36.8,246.59L41.42,247.73L50.65,250.67L55.27,252.61L64.5,257.56L69.12,258.37L82.97,260.63L87.59,261.12L101.44,261.9L106.06,261.68L133.76,257.59L138.38,256.65L161.46,252.44L166.08,251.92L189.17,244.74L193.78,243.15L216.87,234.64L221.49,233.42L249.19,226.63L253.81,225.79L286.13,219.49L290.74,218.8L304.6,217.73L309.21,217.62L318.45,217.87L323.06,218.1L336.92,218.68L341.53,219.39L360,222.42L364.62,223.4L373.85,225.6L378.47,227.65L383.09,229.75L387.71,230.57L396.94,231.15L401.56,230.48L410.79,229.43L415.41,229.66L424.64,230.89L429.26,232.15L443.11,234.69L447.73,234.98L470.81,237.14" style="vector-effect: non-scaling-stroke; fill: none; stroke: rgb(62, 164, 78); stroke-opacity: 1; stroke-width: 2px; opacity: 1;"/></g><g class="points"/><g class="text"/></g><g class="trace scatter trace851883" style="stroke-miterlimit: 2; opacity: 1;"><g class="fills"/><g class="errorbars"/><g class="lines"><path class="js-line" d="M13.71,302.84L27.56,301.52L32.18,300.96L59.88,295.39L64.5,293.76L73.74,291.87L78.35,291.44L87.59,290.99L92.21,291.16L106.06,292.99L110.67,293.84L124.53,296.01L129.14,296.51L166.08,299.55L170.7,299.59L198.4,300.09L203.02,300.44L212.25,300.36L216.87,299.52L253.81,293.69L258.42,293.1L276.89,291.13L281.51,290.84L295.36,290.26L299.98,290.97L309.21,295.93L313.83,297.95L323.06,299.31L327.68,299.73L350.77,301.08L355.38,301.15L383.09,302.82L387.71,302.3L401.56,300.14L406.17,299.16L415.41,297.41L420.03,296.98L429.26,297.32L433.88,297.9L470.81,300.79" style="vector-effect: non-scaling-stroke; fill: none; stroke: rgb(195, 113, 210); stroke-opacity: 1; stroke-width: 2px; opacity: 1;"/></g><g class="points"/><g class="text"/></g><g class="trace scatter trace713eec" style="stroke-miterlimit: 2; opacity: 1;"><g class="fills"/><g class="errorbars"/><g class="lines"><path class="js-line" d="M13.71,229.35L59.88,230.06L64.5,230.7L78.35,232.07L82.97,232.27L106.06,233.78L110.67,233.67L147.61,233.25L152.23,232.91L189.17,230.06L193.78,229.94L221.49,228.44L226.1,228.07L253.81,226.73L258.42,226.69L313.83,225.7L318.45,227.12L336.92,229.15L341.53,229.47L355.38,230.67L360,231.74L378.47,234.55L383.09,234.86L410.79,232.42L415.41,232.56L433.88,233.77L438.49,234.19L470.81,235.5" style="vector-effect: non-scaling-stroke; fill: none; stroke: rgb(172, 142, 24); stroke-opacity: 1; stroke-width: 2px; opacity: 1;"/></g><g class="points"/><g class="text"/></g><g class="trace scatter trace34d6b1" style="stroke-miterlimit: 2; opacity: 1;"><g class="fills"/><g class="errorbars"/><g class="lines"><path class="js-line" d="M13.71,231.62L46.03,231.14L50.65,231.07L73.74,231.56L78.35,231.56L106.06,230.01L110.67,229.76L156.85,227.4L161.46,227.5L179.93,227.26L184.55,227.09L216.87,227.04L221.49,227.08L295.36,228.01L299.98,228.31L309.21,230.05L313.83,231.78L318.45,233.28L323.06,232.98L350.77,232.99L355.38,232.86L369.24,232.13L373.85,233.95L383.09,236.68L387.71,236.66L406.17,235.3L410.79,235.05L443.11,232.46L447.73,231.85L461.58,230.76L466.2,230.64L470.81,230.82" style="vector-effect: non-scaling-stroke; fill: none; stroke: rgb(0, 170, 174); stroke-opacity: 1; stroke-width: 2px; opacity: 1;"/></g><g class="points"/><g class="text"/></g><g class="trace scatter trace171e57" style="stroke-miterlimit: 2; opacity: 1;"><g class="fills"/><g class="errorbars"/><g class="lines"><path class="js-line" d="M13.71,229.26L59.88,230.46L64.5,230.64L115.29,233.29L119.91,233.37L142.99,233.12L147.61,232.92L239.96,228.42L244.57,228.3L304.6,228.06L309.21,228.26L383.09,233.32L387.71,233.32L420.03,232.43L424.64,232.52L466.2,233.84L470.81,233.82" style="vector-effect: non-scaling-stroke; fill: none; stroke: rgb(237, 94, 147); stroke-opacity: 1; stroke-width: 2px; opacity: 1;"/></g><g class="points"/><g class="text"/></g></g></g><g class="overplot"/><path class="xlines-above crisp" d="M31.060221638961792,353.20669291338584H516.5879265091863" style="fill: none; stroke-width: 1px; stroke: rgb(0, 0, 0); stroke-opacity: 1;"/><path class="ylines-above crisp" d="M31.560221638961792,41.04330708661415V352.70669291338584" style="fill: none; stroke-width: 1px; stroke: rgb(0, 0, 0); stroke-opacity: 1;"/><g class="overlines-above"/><g class="xaxislayer-above"><path class="xtick ticks crisp" d="M0,352.70669291338584v-5" transform="translate(45.77022163896179,0)" style="stroke: rgb(0, 0, 0); stroke-opacity: 1; stroke-width: 1px;"/><path class="xtick ticks crisp" d="M0,352.70669291338584v-5" transform="translate(161.20022163896178,0)" style="stroke: rgb(0, 0, 0); stroke-opacity: 1; stroke-width: 1px;"/><path class="xtick ticks crisp" d="M0,352.70669291338584v-5" transform="translate(276.63022163896176,0)" style="stroke: rgb(0, 0, 0); stroke-opacity: 1; stroke-width: 1px;"/><path class="xtick ticks crisp" d="M0,352.70669291338584v-5" transform="translate(392.0602216389618,0)" style="stroke: rgb(0, 0, 0); stroke-opacity: 1; stroke-width: 1px;"/><path class="xtick ticks crisp" d="M0,352.70669291338584v-5" transform="translate(507.49022163896177,0)" style="stroke: rgb(0, 0, 0); stroke-opacity: 1; stroke-width: 1px;"/><g class="xtick"><text text-anchor="middle" x="0" y="366.9066929133858" transform="translate(45.77022163896179,0)" style="font-family: sans-serif; font-size: 11px; fill: rgb(0, 0, 0); fill-opacity: 1; white-space: pre;">0.00</text></g><g class="xtick"><text text-anchor="middle" x="0" y="366.9066929133858" transform="translate(161.20022163896178,0)" style="font-family: sans-serif; font-size: 11px; fill: rgb(0, 0, 0); fill-opacity: 1; white-space: pre;">0.25</text></g><g class="xtick"><text text-anchor="middle" x="0" y="366.9066929133858" transform="translate(276.63022163896176,0)" style="font-family: sans-serif; font-size: 11px; fill: rgb(0, 0, 0); fill-opacity: 1; white-space: pre;">0.50</text></g><g class="xtick"><text text-anchor="middle" x="0" y="366.9066929133858" transform="translate(392.0602216389618,0)" style="font-family: sans-serif; font-size: 11px; fill: rgb(0, 0, 0); fill-opacity: 1; white-space: pre;">0.75</text></g><g class="xtick"><text text-anchor="middle" x="0" y="366.9066929133858" transform="translate(507.49022163896177,0)" style="font-family: sans-serif; font-size: 11px; fill: rgb(0, 0, 0); fill-opacity: 1; white-space: pre;">1.00</text></g></g><g class="yaxislayer-above"><path class="ytick ticks crisp" d="M32.06022163896179,0h5" transform="translate(0,321.85330708661417)" style="stroke: rgb(0, 0, 0); stroke-opacity: 1; stroke-width: 1px;"/><path class="ytick ticks crisp" d="M32.06022163896179,0h5" transform="translate(0,271.99330708661415)" style="stroke: rgb(0, 0, 0); stroke-opacity: 1; stroke-width: 1px;"/><path class="ytick ticks crisp" d="M32.06022163896179,0h5" transform="translate(0,222.12330708661415)" style="stroke: rgb(0, 0, 0); stroke-opacity: 1; stroke-width: 1px;"/><path class="ytick ticks crisp" d="M32.06022163896179,0h5" transform="translate(0,172.26330708661413)" style="stroke: rgb(0, 0, 0); stroke-opacity: 1; stroke-width: 1px;"/><path class="ytick ticks crisp" d="M32.06022163896179,0h5" transform="translate(0,122.39330708661414)" style="stroke: rgb(0, 0, 0); stroke-opacity: 1; stroke-width: 1px;"/><path class="ytick ticks crisp" d="M32.06022163896179,0h5" transform="translate(0,72.53330708661414)" style="stroke: rgb(0, 0, 0); stroke-opacity: 1; stroke-width: 1px;"/><g class="ytick"><text text-anchor="end" x="28.860221638961793" y="3.8499999999999996" transform="translate(0,321.85330708661417)" style="font-family: sans-serif; font-size: 11px; fill: rgb(0, 0, 0); fill-opacity: 1; white-space: pre;">-5</text></g><g class="ytick"><text text-anchor="end" x="28.860221638961793" y="3.8499999999999996" transform="translate(0,271.99330708661415)" style="font-family: sans-serif; font-size: 11px; fill: rgb(0, 0, 0); fill-opacity: 1; white-space: pre;">0</text></g><g class="ytick"><text text-anchor="end" x="28.860221638961793" y="3.8499999999999996" transform="translate(0,222.12330708661415)" style="font-family: sans-serif; font-size: 11px; fill: rgb(0, 0, 0); fill-opacity: 1; white-space: pre;">5</text></g><g class="ytick"><text text-anchor="end" x="28.860221638961793" y="3.8499999999999996" transform="translate(0,172.26330708661413)" style="font-family: sans-serif; font-size: 11px; fill: rgb(0, 0, 0); fill-opacity: 1; white-space: pre;">10</text></g><g class="ytick"><text text-anchor="end" x="28.860221638961793" y="3.8499999999999996" transform="translate(0,122.39330708661414)" style="font-family: sans-serif; font-size: 11px; fill: rgb(0, 0, 0); fill-opacity: 1; white-space: pre;">15</text></g><g class="ytick"><text text-anchor="end" x="28.860221638961793" y="3.8499999999999996" transform="translate(0,72.53330708661414)" style="font-family: sans-serif; font-size: 11px; fill: rgb(0, 0, 0); fill-opacity: 1; white-space: pre;">20</text></g></g><g class="overaxes-above"/></g></g><g class="polarlayer"/><g class="ternarylayer"/><g class="geolayer"/><g class="pielayer"/><g class="sunburstlayer"/><g class="glimages"/><defs id="topdefs-6d424c"><g class="clips"/><clipPath id="legend6d424c"><rect width="80" height="143" x="0" y="0"/></clipPath></defs><g class="layer-above"><g class="imagelayer"/><g class="shapelayer"/></g><g class="infolayer"><g class="legend" pointer-events="all" transform="translate(520, 20)"><rect class="bg" shape-rendering="crispEdges" style="stroke: rgb(0, 0, 0); stroke-opacity: 1; fill: rgb(255, 255, 255); fill-opacity: 1; stroke-width: 0px;" width="80" height="143" x="0" y="0"/><g class="scrollbox" transform="translate(0, 0)" clip-path="url('#legend6d424c')"><g class="groups" transform="translate(0, 0)"><g class="traces" transform="translate(0, 14.5)" style="opacity: 1;"><text class="legendtext user-select-none" text-anchor="start" x="40" y="4.29" style="font-family: sans-serif; font-size: 11px; fill: rgb(0, 0, 0); fill-opacity: 1; white-space: pre;">Joint 1</text><g class="layers" style="opacity: 1;"><g class="legendfill"/><g class="legendlines"><path class="js-line" d="M5,0h30" style="fill: none; stroke: rgb(0, 154, 250); stroke-opacity: 1; stroke-width: 2px;"/></g><g class="legendsymbols"><g class="legendpoints"/></g></g><rect class="legendtoggle" pointer-events="all" x="0" y="-9.5" width="120" height="19" style="cursor: pointer; fill: rgb(0, 0, 0); fill-opacity: 0;"/></g></g><g class="groups" transform="translate(0, 0)"><g class="traces" transform="translate(0, 33.5)" style="opacity: 1;"><text class="legendtext user-select-none" text-anchor="start" x="40" y="4.29" style="font-family: sans-serif; font-size: 11px; fill: rgb(0, 0, 0); fill-opacity: 1; white-space: pre;">Joint 2</text><g class="layers" style="opacity: 1;"><g class="legendfill"/><g class="legendlines"><path class="js-line" d="M5,0h30" style="fill: none; stroke: rgb(227, 111, 71); stroke-opacity: 1; stroke-width: 2px;"/></g><g class="legendsymbols"><g class="legendpoints"/></g></g><rect class="legendtoggle" pointer-events="all" x="0" y="-9.5" width="120" height="19" style="cursor: pointer; fill: rgb(0, 0, 0); fill-opacity: 0;"/></g></g><g class="groups" transform="translate(0, 0)"><g class="traces" transform="translate(0, 52.5)" style="opacity: 1;"><text class="legendtext user-select-none" text-anchor="start" x="40" y="4.29" style="font-family: sans-serif; font-size: 11px; fill: rgb(0, 0, 0); fill-opacity: 1; white-space: pre;">Joint 3</text><g class="layers" style="opacity: 1;"><g class="legendfill"/><g class="legendlines"><path class="js-line" d="M5,0h30" style="fill: none; stroke: rgb(62, 164, 78); stroke-opacity: 1; stroke-width: 2px;"/></g><g class="legendsymbols"><g class="legendpoints"/></g></g><rect class="legendtoggle" pointer-events="all" x="0" y="-9.5" width="120" height="19" style="cursor: pointer; fill: rgb(0, 0, 0); fill-opacity: 0;"/></g></g><g class="groups" transform="translate(0, 0)"><g class="traces" transform="translate(0, 71.5)" style="opacity: 1;"><text class="legendtext user-select-none" text-anchor="start" x="40" y="4.29" style="font-family: sans-serif; font-size: 11px; fill: rgb(0, 0, 0); fill-opacity: 1; white-space: pre;">Joint 4</text><g class="layers" style="opacity: 1;"><g class="legendfill"/><g class="legendlines"><path class="js-line" d="M5,0h30" style="fill: none; stroke: rgb(195, 113, 210); stroke-opacity: 1; stroke-width: 2px;"/></g><g class="legendsymbols"><g class="legendpoints"/></g></g><rect class="legendtoggle" pointer-events="all" x="0" y="-9.5" width="120" height="19" style="cursor: pointer; fill: rgb(0, 0, 0); fill-opacity: 0;"/></g></g><g class="groups" transform="translate(0, 0)"><g class="traces" transform="translate(0, 90.5)" style="opacity: 1;"><text class="legendtext user-select-none" text-anchor="start" x="40" y="4.29" style="font-family: sans-serif; font-size: 11px; fill: rgb(0, 0, 0); fill-opacity: 1; white-space: pre;">Joint 5</text><g class="layers" style="opacity: 1;"><g class="legendfill"/><g class="legendlines"><path class="js-line" d="M5,0h30" style="fill: none; stroke: rgb(172, 142, 24); stroke-opacity: 1; stroke-width: 2px;"/></g><g class="legendsymbols"><g class="legendpoints"/></g></g><rect class="legendtoggle" pointer-events="all" x="0" y="-9.5" width="120" height="19" style="cursor: pointer; fill: rgb(0, 0, 0); fill-opacity: 0;"/></g></g><g class="groups" transform="translate(0, 0)"><g class="traces" transform="translate(0, 109.5)" style="opacity: 1;"><text class="legendtext user-select-none" text-anchor="start" x="40" y="4.29" style="font-family: sans-serif; font-size: 11px; fill: rgb(0, 0, 0); fill-opacity: 1; white-space: pre;">Joint 6</text><g class="layers" style="opacity: 1;"><g class="legendfill"/><g class="legendlines"><path class="js-line" d="M5,0h30" style="fill: none; stroke: rgb(0, 170, 174); stroke-opacity: 1; stroke-width: 2px;"/></g><g class="legendsymbols"><g class="legendpoints"/></g></g><rect class="legendtoggle" pointer-events="all" x="0" y="-9.5" width="120" height="19" style="cursor: pointer; fill: rgb(0, 0, 0); fill-opacity: 0;"/></g></g><g class="groups" transform="translate(0, 0)"><g class="traces" transform="translate(0, 128.5)" style="opacity: 1;"><text class="legendtext user-select-none" text-anchor="start" x="40" y="4.29" style="font-family: sans-serif; font-size: 11px; fill: rgb(0, 0, 0); fill-opacity: 1; white-space: pre;">Joint 7</text><g class="layers" style="opacity: 1;"><g class="legendfill"/><g class="legendlines"><path class="js-line" d="M5,0h30" style="fill: none; stroke: rgb(237, 94, 147); stroke-opacity: 1; stroke-width: 2px;"/></g><g class="legendsymbols"><g class="legendpoints"/></g></g><rect class="legendtoggle" pointer-events="all" x="0" y="-9.5" width="120" height="19" style="cursor: pointer; fill: rgb(0, 0, 0); fill-opacity: 0;"/></g></g></g><rect class="scrollbar" rx="20" ry="3" width="0" height="0" style="fill: rgb(128, 139, 164); fill-opacity: 1;" x="0" y="0"/></g><g class="g-gtitle"/><g class="g-xtitle" transform="translate(0,-10.706692913385837)"><text class="xtitle" x="274.3240740740741" y="407.70669291338584" text-anchor="middle" style="font-family: sans-serif; font-size: 15px; fill: rgb(0, 0, 0); opacity: 1; font-weight: normal; white-space: pre;">Time, t</text></g><g class="g-ytitle" transform="translate(21.939453125,0)"><text class="ytitle" transform="rotate(-90,-7.939778361038208,196.875)" x="-7.939778361038208" y="196.875" text-anchor="middle" style="font-family: sans-serif; font-size: 15px; fill: rgb(0, 0, 0); opacity: 1; font-weight: normal; white-space: pre;">Torque, τ</text></g><g class="annotation" data-index="0" style="opacity: 1;"><g class="annotation-text-g" transform="rotate(0,274.3240740740741,33.00000000000001)"><g class="cursor-pointer" transform="translate(156, 20)"><rect class="bg" x="0.5" y="0.5" width="236" height="25" style="stroke-width: 1px; stroke: rgb(0, 0, 0); stroke-opacity: 0; fill: rgb(0, 0, 0); fill-opacity: 0;"/><text class="annotation-text" text-anchor="middle" x="118.34375" y="20" style="font-family: sans-serif; font-size: 20px; fill: rgb(0, 0, 0); fill-opacity: 1; white-space: pre;">Plot of Torque Trajectories</text></g></g></g></g></svg>